<?xml version="1.0" encoding="UTF-8" ?>
<!DOCTYPE svg PUBLIC "-//W3C//DTD SVG 1.1//EN" "http://www.w3.org/Graphics/SVG/1.1/DTD/svg11.dtd">
<svg width="640pt" height="720pt" viewBox="0 0 640 720" version="1.1" xmlns="http://www.w3.org/2000/svg">
<path fill="#000000" d=" M 0.00 0.00 L 640.00 0.00 L 640.00 720.00 L 0.00 720.00 L 0.00 0.00 Z" />
<path fill="#ffffff" d=" M 381.21 18.53 C 394.61 26.10 409.31 31.15 422.76 38.65 C 426.00 41.76 425.63 46.90 426.90 50.93 C 422.78 53.41 418.38 55.46 413.62 56.31 C 388.65 62.14 365.61 76.52 350.03 96.96 C 340.76 107.34 335.28 120.25 329.28 132.63 C 325.29 141.37 322.17 151.41 325.08 160.95 C 326.70 165.72 331.65 167.85 336.23 168.72 C 363.41 174.59 390.16 186.06 410.27 205.71 C 434.61 227.88 447.64 259.77 453.03 291.68 C 453.80 303.10 454.24 316.26 447.40 326.12 C 441.90 333.63 431.99 333.63 423.95 336.34 C 391.59 344.67 358.56 350.81 325.17 352.83 C 309.47 354.25 293.72 352.85 278.00 353.40 C 244.96 351.89 212.22 346.05 180.33 337.41 C 170.27 335.01 161.75 326.74 159.04 316.77 C 152.79 296.91 158.31 275.96 165.28 257.10 C 174.31 235.49 187.17 215.37 203.47 198.52 C 216.96 186.67 231.95 175.92 249.02 169.91 C 256.38 167.01 264.01 164.81 271.77 163.34 C 275.90 162.51 280.16 161.88 283.90 159.83 C 288.71 156.99 292.11 152.04 293.24 146.58 C 299.48 112.28 317.68 81.12 340.53 55.21 C 352.71 41.52 367.09 30.11 381.21 18.53 Z" />
<path fill="#ffffff" d=" M 175.84 349.11 C 191.87 351.51 207.49 356.23 223.62 358.02 C 242.96 360.82 262.46 362.41 281.95 363.65 C 297.73 362.82 313.52 363.51 329.31 363.17 C 354.60 361.52 379.88 359.02 404.80 354.31 C 413.92 352.65 422.94 350.47 432.10 349.10 C 433.59 365.74 431.95 382.40 431.31 399.04 C 431.76 440.44 430.41 482.02 424.30 523.02 C 421.25 543.25 416.44 563.56 406.88 581.78 C 402.94 589.81 396.46 596.05 390.82 602.85 C 381.53 613.41 369.93 621.91 357.26 627.98 C 351.08 612.20 344.09 596.76 338.04 580.93 C 334.71 574.04 331.75 566.99 329.26 559.76 C 327.48 554.70 324.36 550.14 323.31 544.85 C 322.84 543.07 324.17 541.54 325.44 540.50 C 330.36 536.72 336.47 534.39 340.50 529.49 C 348.51 520.57 354.85 509.26 354.91 496.97 C 356.68 482.65 350.54 468.44 340.78 458.23 C 333.71 451.27 325.23 445.03 315.04 443.86 C 306.37 442.74 297.29 442.07 288.82 444.75 C 277.03 448.56 266.85 456.78 260.31 467.28 C 248.35 487.97 252.17 517.46 271.43 532.48 C 275.59 536.27 281.70 538.28 284.68 543.29 C 284.52 548.76 281.64 553.69 279.73 558.70 C 275.26 568.42 271.93 578.61 267.19 588.20 C 261.03 601.10 257.43 615.10 250.24 627.52 C 236.66 618.93 222.96 609.79 213.01 596.96 C 198.85 579.67 189.96 558.27 186.98 536.18 C 184.24 520.39 181.17 504.61 180.43 488.56 C 180.01 473.56 178.99 458.58 178.57 443.57 C 179.81 418.02 176.25 392.53 177.65 366.99 C 177.57 360.99 176.46 355.06 175.84 349.11 Z" />
</svg>
