<?xml version="1.0" standalone="no"?>
<!DOCTYPE svg PUBLIC "-//W3C//DTD SVG 20010904//EN"
 "http://www.w3.org/TR/2001/REC-SVG-20010904/DTD/svg10.dtd">
<svg version="1.0" xmlns="http://www.w3.org/2000/svg"
 width="700.000000pt" height="700.000000pt" viewBox="0 0 700.000000 700.000000"
 preserveAspectRatio="xMidYMid meet">
<metadata>
Created by potrace 1.11, written by Peter Selinger 2001-2013
</metadata>
<g transform="translate(0.000000,700.000000) scale(0.100000,-0.100000)"
fill="#000000" stroke="none">
<path d="M0 3500 l0 -3500 3500 0 3500 0 0 3500 0 3500 -3500 0 -3500 0 0
-3500z m3908 2722 c8 -5 42 -163 86 -401 40 -216 77 -396 82 -401 16 -16 547
-231 559 -226 6 2 156 103 333 225 177 122 329 221 339 221 24 0 573 -549 573
-573 0 -10 -95 -156 -211 -325 -116 -169 -216 -316 -221 -328 -8 -17 13 -73
109 -298 67 -159 125 -282 135 -287 10 -5 185 -41 390 -79 224 -42 375 -74
380 -82 4 -7 8 -189 8 -404 0 -325 -2 -394 -14 -403 -8 -7 -175 -42 -373 -78
-210 -39 -365 -72 -375 -81 -21 -17 -251 -590 -244 -607 2 -7 97 -148 210
-313 113 -165 206 -308 206 -319 0 -22 -549 -573 -571 -573 -9 0 -150 92 -314
205 -165 113 -307 205 -316 205 -10 0 -77 -32 -149 -71 -75 -40 -140 -69 -152
-67 -19 3 -61 98 -290 650 -147 356 -265 654 -262 663 4 8 47 44 98 79 168
118 242 199 318 350 152 302 96 667 -140 918 -102 108 -223 183 -372 230 -65
20 -96 23 -225 23 -129 0 -160 -3 -225 -23 -226 -71 -404 -221 -506 -427 -63
-128 -86 -224 -86 -365 0 -217 80 -414 229 -567 49 -50 172 -145 231 -179 18
-10 35 -28 38 -39 3 -12 -98 -267 -255 -648 -143 -345 -265 -636 -271 -647 -6
-11 -19 -20 -30 -20 -10 0 -78 32 -150 71 -84 45 -140 69 -154 66 -11 -2 -146
-90 -299 -196 -315 -216 -312 -214 -335 -207 -26 9 -562 550 -562 568 0 17 2
20 257 391 90 131 163 244 163 252 0 8 -52 146 -116 306 -89 222 -122 293
-138 300 -11 4 -180 38 -375 74 -195 36 -360 70 -367 76 -11 9 -14 85 -14 405
l0 394 22 13 c13 8 187 44 388 81 201 37 371 73 378 80 15 15 242 542 242 563
0 8 -97 157 -216 330 -119 173 -219 324 -222 335 -4 15 55 79 274 299 168 168
286 279 297 279 11 0 159 -96 331 -213 171 -118 321 -219 333 -225 19 -10 56
2 270 89 293 120 300 123 308 148 3 11 37 187 75 391 38 205 74 378 81 386 9
12 79 14 403 14 215 0 397 -4 404 -8z"/>
</g>
</svg>
