<?xml version="1.0" standalone="no"?>
<!DOCTYPE svg PUBLIC "-//W3C//DTD SVG 20010904//EN"
 "http://www.w3.org/TR/2001/REC-SVG-20010904/DTD/svg10.dtd">
<svg version="1.0" xmlns="http://www.w3.org/2000/svg"
 width="132.000000pt" height="132.000000pt" viewBox="0 0 132.000000 132.000000"
 preserveAspectRatio="xMidYMid meet">
<metadata>
Created by potrace 1.11, written by Peter Selinger 2001-2013
</metadata>
<g transform="translate(0.000000,132.000000) scale(0.100000,-0.100000)"
fill="#000000" stroke="none">
<path d="M15 1300 c10 -11 20 -20 23 -20 3 0 -3 9 -13 20 -10 11 -20 20 -23
20 -3 0 3 -9 13 -20z"/>
<path d="M84 1298 l-19 -23 23 19 c21 18 27 26 19 26 -2 0 -12 -10 -23 -22z"/>
<path d="M235 1300 c10 -11 20 -20 23 -20 3 0 -3 9 -13 20 -10 11 -20 20 -23
20 -3 0 3 -9 13 -20z"/>
<path d="M304 1298 l-19 -23 23 19 c21 18 27 26 19 26 -2 0 -12 -10 -23 -22z"/>
<path d="M455 1300 c10 -11 20 -20 23 -20 3 0 -3 9 -13 20 -10 11 -20 20 -23
20 -3 0 3 -9 13 -20z"/>
<path d="M524 1298 l-19 -23 23 19 c21 18 27 26 19 26 -2 0 -12 -10 -23 -22z"/>
<path d="M675 1300 c10 -11 20 -20 23 -20 3 0 -3 9 -13 20 -10 11 -20 20 -23
20 -3 0 3 -9 13 -20z"/>
<path d="M744 1298 l-19 -23 23 19 c21 18 27 26 19 26 -2 0 -12 -10 -23 -22z"/>
<path d="M895 1300 c10 -11 20 -20 23 -20 3 0 -3 9 -13 20 -10 11 -20 20 -23
20 -3 0 3 -9 13 -20z"/>
<path d="M964 1298 l-19 -23 23 19 c21 18 27 26 19 26 -2 0 -12 -10 -23 -22z"/>
<path d="M1115 1300 c10 -11 20 -20 23 -20 3 0 -3 9 -13 20 -10 11 -20 20 -23
20 -3 0 3 -9 13 -20z"/>
<path d="M1184 1298 l-19 -23 23 19 c21 18 27 26 19 26 -2 0 -12 -10 -23 -22z"/>
<path d="M145 1283 c13 -15 13 -19 -2 -37 -17 -20 -17 -20 2 -4 18 17 20 17
39 0 21 -17 21 -17 4 4 -17 19 -17 21 0 39 16 19 16 19 -4 2 -18 -15 -22 -15
-37 -2 -16 14 -16 14 -2 -2z"/>
<path d="M365 1283 c13 -15 13 -19 -2 -37 -17 -20 -17 -20 2 -4 18 17 20 17
39 0 21 -17 21 -17 4 4 -17 19 -17 21 0 39 16 19 16 19 -4 2 -18 -15 -22 -15
-37 -2 -16 14 -16 14 -2 -2z"/>
<path d="M585 1283 c13 -15 13 -19 -2 -37 -17 -20 -17 -20 2 -4 18 17 20 17
39 0 21 -17 21 -17 4 4 -17 19 -17 21 0 39 16 19 16 19 -4 2 -18 -15 -22 -15
-37 -2 -16 14 -16 14 -2 -2z"/>
<path d="M805 1283 c13 -15 13 -19 -2 -37 -17 -20 -17 -20 2 -4 18 17 20 17
39 0 21 -17 21 -17 4 4 -17 19 -17 21 0 39 16 19 16 19 -4 2 -18 -15 -22 -15
-37 -2 -16 14 -16 14 -2 -2z"/>
<path d="M1025 1283 c13 -15 13 -19 -2 -37 -17 -20 -17 -20 2 -4 18 17 20 17
39 0 21 -17 21 -17 4 4 -17 19 -17 21 0 39 16 19 16 19 -4 2 -18 -15 -22 -15
-37 -2 -16 14 -16 14 -2 -2z"/>
<path d="M1245 1283 c13 -15 13 -19 -2 -37 -17 -20 -17 -20 2 -4 18 17 20 17
39 0 21 -17 21 -17 4 4 -17 19 -17 21 0 39 16 19 16 19 -4 2 -18 -15 -22 -15
-37 -2 -16 14 -16 14 -2 -2z"/>
<path d="M14 1228 l-19 -23 23 19 c12 11 22 21 22 23 0 8 -8 2 -26 -19z"/>
<path d="M105 1210 c21 -22 41 -40 44 -40 3 0 -13 18 -34 40 -21 22 -41 40
-44 40 -3 0 13 -18 34 -40z"/>
<path d="M215 1208 l-40 -43 43 40 c23 21 42 40 42 42 0 8 -9 0 -45 -39z"/>
<path d="M325 1210 c21 -22 41 -40 44 -40 3 0 -13 18 -34 40 -21 22 -41 40
-44 40 -3 0 13 -18 34 -40z"/>
<path d="M435 1208 l-40 -43 43 40 c23 21 42 40 42 42 0 8 -9 0 -45 -39z"/>
<path d="M545 1210 c21 -22 41 -40 44 -40 3 0 -13 18 -34 40 -21 22 -41 40
-44 40 -3 0 13 -18 34 -40z"/>
<path d="M655 1208 l-40 -43 43 40 c39 36 47 45 39 45 -2 0 -21 -19 -42 -42z"/>
<path d="M765 1210 c21 -22 41 -40 44 -40 3 0 -13 18 -34 40 -21 22 -41 40
-44 40 -3 0 13 -18 34 -40z"/>
<path d="M875 1208 l-40 -43 43 40 c23 21 42 40 42 42 0 8 -9 0 -45 -39z"/>
<path d="M985 1210 c21 -22 41 -40 44 -40 3 0 -13 18 -34 40 -21 22 -41 40
-44 40 -3 0 13 -18 34 -40z"/>
<path d="M1095 1208 l-40 -43 43 40 c23 21 42 40 42 42 0 8 -9 0 -45 -39z"/>
<path d="M1205 1210 c21 -22 41 -40 44 -40 3 0 -13 18 -34 40 -21 22 -41 40
-44 40 -3 0 13 -18 34 -40z"/>
<path d="M1294 1188 l-19 -23 23 19 c21 18 27 26 19 26 -2 0 -12 -10 -23 -22z"/>
<path d="M35 1173 c13 -15 13 -19 -2 -37 -17 -20 -17 -20 2 -4 18 17 20 17 39
0 21 -17 21 -17 4 4 -17 19 -17 21 0 39 16 19 16 19 -4 2 -18 -15 -22 -15 -37
-2 -16 14 -16 14 -2 -2z"/>
<path d="M255 1173 c13 -15 13 -19 -2 -37 -17 -20 -17 -20 2 -4 18 17 20 17
39 0 21 -17 21 -17 4 4 -17 19 -17 21 0 39 16 19 16 19 -4 2 -18 -15 -22 -15
-37 -2 -16 14 -16 14 -2 -2z"/>
<path d="M475 1173 c13 -15 13 -19 -2 -37 -17 -20 -17 -20 2 -4 18 17 20 17
39 0 21 -17 21 -17 4 4 -17 19 -17 21 0 39 16 19 16 19 -4 2 -18 -15 -22 -15
-37 -2 -16 14 -16 14 -2 -2z"/>
<path d="M695 1173 c13 -15 13 -19 -2 -37 -17 -20 -17 -20 2 -4 18 17 20 17
39 0 21 -17 21 -17 4 4 -17 19 -17 21 0 39 16 19 16 19 -4 2 -18 -15 -22 -15
-37 -2 -16 14 -16 14 -2 -2z"/>
<path d="M915 1173 c13 -15 13 -19 -2 -37 -17 -20 -17 -20 2 -4 18 17 20 17
39 0 21 -17 21 -17 4 4 -17 19 -17 21 0 39 16 19 16 19 -4 2 -18 -15 -22 -15
-37 -2 -16 14 -16 14 -2 -2z"/>
<path d="M1135 1173 c13 -15 13 -19 -2 -37 -17 -20 -17 -20 2 -4 18 17 20 17
39 0 21 -17 21 -17 4 4 -17 19 -17 21 0 39 16 19 16 19 -4 2 -18 -15 -22 -15
-37 -2 -16 14 -16 14 -2 -2z"/>
<path d="M105 1098 l-40 -43 43 40 c39 36 47 45 39 45 -2 0 -21 -19 -42 -42z"/>
<path d="M215 1100 c21 -22 41 -40 44 -40 3 0 -13 18 -34 40 -21 22 -41 40
-44 40 -3 0 13 -18 34 -40z"/>
<path d="M325 1098 l-40 -43 43 40 c23 21 42 40 42 42 0 8 -9 0 -45 -39z"/>
<path d="M435 1100 c21 -22 41 -40 44 -40 3 0 -13 18 -34 40 -21 22 -41 40
-44 40 -3 0 13 -18 34 -40z"/>
<path d="M545 1098 l-40 -43 43 40 c23 21 42 40 42 42 0 8 -9 0 -45 -39z"/>
<path d="M655 1100 c21 -22 41 -40 44 -40 3 0 -13 18 -34 40 -21 22 -41 40
-44 40 -3 0 13 -18 34 -40z"/>
<path d="M765 1098 l-40 -43 43 40 c23 21 42 40 42 42 0 8 -9 0 -45 -39z"/>
<path d="M875 1100 c21 -22 41 -40 44 -40 3 0 -13 18 -34 40 -21 22 -41 40
-44 40 -3 0 13 -18 34 -40z"/>
<path d="M985 1098 l-40 -43 43 40 c39 36 47 45 39 45 -2 0 -21 -19 -42 -42z"/>
<path d="M1095 1100 c21 -22 41 -40 44 -40 3 0 -13 18 -34 40 -21 22 -41 40
-44 40 -3 0 13 -18 34 -40z"/>
<path d="M1205 1098 l-40 -43 43 40 c23 21 42 40 42 42 0 8 -9 0 -45 -39z"/>
<path d="M1295 1120 c10 -11 20 -20 23 -20 3 0 -3 9 -13 20 -10 11 -20 20 -23
20 -3 0 3 -9 13 -20z"/>
<path d="M15 1080 c10 -11 20 -20 23 -20 3 0 -3 9 -13 20 -10 11 -20 20 -23
20 -3 0 3 -9 13 -20z"/>
<path d="M145 1063 c13 -15 13 -19 -2 -37 -17 -20 -17 -20 2 -4 18 17 20 17
39 0 21 -17 21 -17 4 4 -17 19 -17 21 0 39 16 19 16 19 -4 2 -18 -15 -22 -15
-37 -2 -16 14 -16 14 -2 -2z"/>
<path d="M365 1063 c13 -15 13 -19 -2 -37 -17 -20 -17 -20 2 -4 18 17 20 17
39 0 21 -17 21 -17 4 4 -17 19 -17 21 0 39 16 19 16 19 -4 2 -18 -15 -22 -15
-37 -2 -16 14 -16 14 -2 -2z"/>
<path d="M585 1063 c13 -15 13 -19 -2 -37 -17 -20 -17 -20 2 -4 18 17 20 17
39 0 21 -17 21 -17 4 4 -17 19 -17 21 0 39 16 19 16 19 -4 2 -18 -15 -22 -15
-37 -2 -16 14 -16 14 -2 -2z"/>
<path d="M805 1063 c13 -15 13 -19 -2 -37 -17 -20 -17 -20 2 -4 18 17 20 17
39 0 21 -17 21 -17 4 4 -17 19 -17 21 0 39 16 19 16 19 -4 2 -18 -15 -22 -15
-37 -2 -16 14 -16 14 -2 -2z"/>
<path d="M1025 1063 c13 -15 13 -19 -2 -37 -17 -20 -17 -20 2 -4 18 17 20 17
39 0 21 -17 21 -17 4 4 -17 19 -17 21 0 39 16 19 16 19 -4 2 -18 -15 -22 -15
-37 -2 -16 14 -16 14 -2 -2z"/>
<path d="M1245 1063 c13 -15 13 -19 -2 -37 -17 -20 -17 -20 2 -4 18 17 20 17
39 0 21 -17 21 -17 4 4 -17 19 -17 21 0 39 16 19 16 19 -4 2 -18 -15 -22 -15
-37 -2 -16 14 -16 14 -2 -2z"/>
<path d="M14 1008 l-19 -23 23 19 c21 18 27 26 19 26 -2 0 -12 -10 -23 -22z"/>
<path d="M105 990 c21 -22 41 -40 44 -40 3 0 -13 18 -34 40 -21 22 -41 40 -44
40 -3 0 13 -18 34 -40z"/>
<path d="M215 988 l-40 -43 43 40 c23 21 42 40 42 42 0 8 -9 0 -45 -39z"/>
<path d="M325 990 c21 -22 41 -40 44 -40 3 0 -13 18 -34 40 -21 22 -41 40 -44
40 -3 0 13 -18 34 -40z"/>
<path d="M435 988 l-40 -43 43 40 c23 21 42 40 42 42 0 8 -9 0 -45 -39z"/>
<path d="M545 990 c21 -22 41 -40 44 -40 3 0 -13 18 -34 40 -21 22 -41 40 -44
40 -3 0 13 -18 34 -40z"/>
<path d="M655 988 l-40 -43 43 40 c23 21 42 40 42 42 0 8 -9 0 -45 -39z"/>
<path d="M765 990 c21 -22 41 -40 44 -40 3 0 -13 18 -34 40 -21 22 -41 40 -44
40 -3 0 13 -18 34 -40z"/>
<path d="M875 988 l-40 -43 43 40 c23 21 42 40 42 42 0 8 -9 0 -45 -39z"/>
<path d="M985 990 c21 -22 41 -40 44 -40 3 0 -13 18 -34 40 -21 22 -41 40 -44
40 -3 0 13 -18 34 -40z"/>
<path d="M1095 988 l-40 -43 43 40 c23 21 42 40 42 42 0 8 -9 0 -45 -39z"/>
<path d="M1205 990 c21 -22 41 -40 44 -40 3 0 -13 18 -34 40 -21 22 -41 40
-44 40 -3 0 13 -18 34 -40z"/>
<path d="M1294 968 l-19 -23 23 19 c21 18 27 26 19 26 -2 0 -12 -10 -23 -22z"/>
<path d="M35 953 c13 -15 13 -19 -2 -37 -17 -20 -17 -20 2 -4 18 17 20 17 39
0 21 -17 21 -17 4 4 -17 19 -17 21 0 39 16 19 16 19 -4 2 -18 -15 -22 -15 -37
-2 -16 14 -16 14 -2 -2z"/>
<path d="M255 953 c13 -15 13 -19 -2 -37 -17 -20 -17 -20 2 -4 18 17 20 17 39
0 21 -17 21 -17 4 4 -17 19 -17 21 0 39 16 19 16 19 -4 2 -18 -15 -22 -15 -37
-2 -16 14 -16 14 -2 -2z"/>
<path d="M475 953 c13 -15 13 -19 -2 -37 -17 -20 -17 -20 2 -4 18 17 20 17 39
0 21 -17 21 -17 4 4 -17 19 -17 21 0 39 16 19 16 19 -4 2 -18 -15 -22 -15 -37
-2 -16 14 -16 14 -2 -2z"/>
<path d="M695 953 c13 -15 13 -19 -2 -37 -17 -20 -17 -20 2 -4 18 17 20 17 39
0 21 -17 21 -17 4 4 -17 19 -17 21 0 39 16 19 16 19 -4 2 -18 -15 -22 -15 -37
-2 -16 14 -16 14 -2 -2z"/>
<path d="M915 953 c13 -15 13 -19 -2 -37 -17 -20 -17 -20 2 -4 18 17 20 17 39
0 21 -17 21 -17 4 4 -17 19 -17 21 0 39 16 19 16 19 -4 2 -18 -15 -22 -15 -37
-2 -16 14 -16 14 -2 -2z"/>
<path d="M1135 953 c13 -15 13 -19 -2 -37 -17 -20 -17 -20 2 -4 18 17 20 17
39 0 21 -17 21 -17 4 4 -17 19 -17 21 0 39 16 19 16 19 -4 2 -18 -15 -22 -15
-37 -2 -16 14 -16 14 -2 -2z"/>
<path d="M105 878 l-40 -43 43 40 c39 36 47 45 39 45 -2 0 -21 -19 -42 -42z"/>
<path d="M215 880 c21 -22 41 -40 44 -40 3 0 -13 18 -34 40 -21 22 -41 40 -44
40 -3 0 13 -18 34 -40z"/>
<path d="M325 878 l-40 -43 43 40 c23 21 42 40 42 42 0 8 -9 0 -45 -39z"/>
<path d="M435 880 c21 -22 41 -40 44 -40 3 0 -13 18 -34 40 -21 22 -41 40 -44
40 -3 0 13 -18 34 -40z"/>
<path d="M545 878 l-40 -43 43 40 c23 21 42 40 42 42 0 8 -9 0 -45 -39z"/>
<path d="M655 880 c21 -22 41 -40 44 -40 3 0 -13 18 -34 40 -21 22 -41 40 -44
40 -3 0 13 -18 34 -40z"/>
<path d="M765 878 l-40 -43 43 40 c23 21 42 40 42 42 0 8 -9 0 -45 -39z"/>
<path d="M875 880 c21 -22 41 -40 44 -40 3 0 -13 18 -34 40 -21 22 -41 40 -44
40 -3 0 13 -18 34 -40z"/>
<path d="M985 878 l-40 -43 43 40 c39 36 47 45 39 45 -2 0 -21 -19 -42 -42z"/>
<path d="M1095 880 c21 -22 41 -40 44 -40 3 0 -13 18 -34 40 -21 22 -41 40
-44 40 -3 0 13 -18 34 -40z"/>
<path d="M1205 878 l-40 -43 43 40 c23 21 42 40 42 42 0 8 -9 0 -45 -39z"/>
<path d="M1295 900 c10 -11 20 -20 23 -20 3 0 -3 9 -13 20 -10 11 -20 20 -23
20 -3 0 3 -9 13 -20z"/>
<path d="M15 860 c10 -11 20 -20 23 -20 3 0 -3 9 -13 20 -10 11 -20 20 -23 20
-3 0 3 -9 13 -20z"/>
<path d="M145 843 c13 -15 13 -19 -2 -37 -17 -20 -17 -20 2 -4 18 17 20 17 39
0 21 -17 21 -17 4 4 -17 19 -17 21 0 39 16 19 16 19 -4 2 -18 -15 -22 -15 -37
-2 -16 14 -16 14 -2 -2z"/>
<path d="M365 843 c13 -15 13 -19 -2 -37 -17 -20 -17 -20 2 -4 18 17 20 17 39
0 21 -17 21 -17 4 4 -17 19 -17 21 0 39 16 19 16 19 -4 2 -18 -15 -22 -15 -37
-2 -16 14 -16 14 -2 -2z"/>
<path d="M585 843 c13 -15 13 -19 -2 -37 -17 -20 -17 -20 2 -4 18 17 20 17 39
0 21 -17 21 -17 4 4 -17 19 -17 21 0 39 16 19 16 19 -4 2 -18 -15 -22 -15 -37
-2 -16 14 -16 14 -2 -2z"/>
<path d="M805 843 c13 -15 13 -19 -2 -37 -17 -20 -17 -20 2 -4 18 17 20 17 39
0 21 -17 21 -17 4 4 -17 19 -17 21 0 39 16 19 16 19 -4 2 -18 -15 -22 -15 -37
-2 -16 14 -16 14 -2 -2z"/>
<path d="M1025 843 c13 -15 13 -19 -2 -37 -17 -20 -17 -20 2 -4 18 17 20 17
39 0 21 -17 21 -17 4 4 -17 19 -17 21 0 39 16 19 16 19 -4 2 -18 -15 -22 -15
-37 -2 -16 14 -16 14 -2 -2z"/>
<path d="M1245 843 c13 -15 13 -19 -2 -37 -17 -20 -17 -20 2 -4 18 17 20 17
39 0 21 -17 21 -17 4 4 -17 19 -17 21 0 39 16 19 16 19 -4 2 -18 -15 -22 -15
-37 -2 -16 14 -16 14 -2 -2z"/>
<path d="M14 788 l-19 -23 23 19 c12 11 22 21 22 23 0 8 -8 2 -26 -19z"/>
<path d="M105 770 c21 -22 41 -40 44 -40 3 0 -13 18 -34 40 -21 22 -41 40 -44
40 -3 0 13 -18 34 -40z"/>
<path d="M215 768 l-40 -43 43 40 c23 21 42 40 42 42 0 8 -9 0 -45 -39z"/>
<path d="M325 770 c21 -22 41 -40 44 -40 3 0 -13 18 -34 40 -21 22 -41 40 -44
40 -3 0 13 -18 34 -40z"/>
<path d="M435 768 l-40 -43 43 40 c23 21 42 40 42 42 0 8 -9 0 -45 -39z"/>
<path d="M545 770 c21 -22 41 -40 44 -40 3 0 -13 18 -34 40 -21 22 -41 40 -44
40 -3 0 13 -18 34 -40z"/>
<path d="M655 768 l-40 -43 43 40 c39 36 47 45 39 45 -2 0 -21 -19 -42 -42z"/>
<path d="M765 770 c21 -22 41 -40 44 -40 3 0 -13 18 -34 40 -21 22 -41 40 -44
40 -3 0 13 -18 34 -40z"/>
<path d="M875 768 l-40 -43 43 40 c23 21 42 40 42 42 0 8 -9 0 -45 -39z"/>
<path d="M985 770 c21 -22 41 -40 44 -40 3 0 -13 18 -34 40 -21 22 -41 40 -44
40 -3 0 13 -18 34 -40z"/>
<path d="M1095 768 l-40 -43 43 40 c23 21 42 40 42 42 0 8 -9 0 -45 -39z"/>
<path d="M1205 770 c21 -22 41 -40 44 -40 3 0 -13 18 -34 40 -21 22 -41 40
-44 40 -3 0 13 -18 34 -40z"/>
<path d="M1294 748 l-19 -23 23 19 c21 18 27 26 19 26 -2 0 -12 -10 -23 -22z"/>
<path d="M35 733 c13 -15 13 -19 -2 -37 -17 -20 -17 -20 2 -4 18 17 20 17 39
0 21 -17 21 -17 4 4 -17 19 -17 21 0 39 16 19 16 19 -4 2 -18 -15 -22 -15 -37
-2 -16 14 -16 14 -2 -2z"/>
<path d="M255 733 c13 -15 13 -19 -2 -37 -17 -20 -17 -20 2 -4 18 17 20 17 39
0 21 -17 21 -17 4 4 -17 19 -17 21 0 39 16 19 16 19 -4 2 -18 -15 -22 -15 -37
-2 -16 14 -16 14 -2 -2z"/>
<path d="M475 733 c13 -15 13 -19 -2 -37 -17 -20 -17 -20 2 -4 18 17 20 17 39
0 21 -17 21 -17 4 4 -17 19 -17 21 0 39 16 19 16 19 -4 2 -18 -15 -22 -15 -37
-2 -16 14 -16 14 -2 -2z"/>
<path d="M695 733 c13 -15 13 -19 -2 -37 -17 -20 -17 -20 2 -4 18 17 20 17 39
0 21 -17 21 -17 4 4 -17 19 -17 21 0 39 16 19 16 19 -4 2 -18 -15 -22 -15 -37
-2 -16 14 -16 14 -2 -2z"/>
<path d="M915 733 c13 -15 13 -19 -2 -37 -17 -20 -17 -20 2 -4 18 17 20 17 39
0 21 -17 21 -17 4 4 -17 19 -17 21 0 39 16 19 16 19 -4 2 -18 -15 -22 -15 -37
-2 -16 14 -16 14 -2 -2z"/>
<path d="M1135 733 c13 -15 13 -19 -2 -37 -17 -20 -17 -20 2 -4 18 17 20 17
39 0 21 -17 21 -17 4 4 -17 19 -17 21 0 39 16 19 16 19 -4 2 -18 -15 -22 -15
-37 -2 -16 14 -16 14 -2 -2z"/>
<path d="M105 658 l-40 -43 43 40 c23 21 42 40 42 42 0 8 -9 0 -45 -39z"/>
<path d="M215 660 c21 -22 41 -40 44 -40 3 0 -13 18 -34 40 -21 22 -41 40 -44
40 -3 0 13 -18 34 -40z"/>
<path d="M325 658 l-40 -43 43 40 c23 21 42 40 42 42 0 8 -9 0 -45 -39z"/>
<path d="M435 660 c21 -22 41 -40 44 -40 3 0 -13 18 -34 40 -21 22 -41 40 -44
40 -3 0 13 -18 34 -40z"/>
<path d="M545 658 l-40 -43 43 40 c23 21 42 40 42 42 0 8 -9 0 -45 -39z"/>
<path d="M655 660 c21 -22 41 -40 44 -40 3 0 -13 18 -34 40 -21 22 -41 40 -44
40 -3 0 13 -18 34 -40z"/>
<path d="M765 658 l-40 -43 43 40 c23 21 42 40 42 42 0 8 -9 0 -45 -39z"/>
<path d="M875 660 c21 -22 41 -40 44 -40 3 0 -13 18 -34 40 -21 22 -41 40 -44
40 -3 0 13 -18 34 -40z"/>
<path d="M985 658 l-40 -43 43 40 c39 36 47 45 39 45 -2 0 -21 -19 -42 -42z"/>
<path d="M1095 660 c21 -22 41 -40 44 -40 3 0 -13 18 -34 40 -21 22 -41 40
-44 40 -3 0 13 -18 34 -40z"/>
<path d="M1205 658 l-40 -43 43 40 c23 21 42 40 42 42 0 8 -9 0 -45 -39z"/>
<path d="M1295 680 c10 -11 20 -20 23 -20 3 0 -3 9 -13 20 -10 11 -20 20 -23
20 -3 0 3 -9 13 -20z"/>
<path d="M15 640 c10 -11 20 -20 23 -20 3 0 -3 9 -13 20 -10 11 -20 20 -23 20
-3 0 3 -9 13 -20z"/>
<path d="M145 623 c13 -15 13 -19 -2 -37 -17 -20 -17 -20 2 -4 18 17 20 17 39
0 21 -17 21 -17 4 4 -17 19 -17 21 0 39 16 19 16 19 -4 2 -18 -15 -22 -15 -37
-2 -16 14 -16 14 -2 -2z"/>
<path d="M365 623 c13 -15 13 -19 -2 -37 -17 -20 -17 -20 2 -4 18 17 20 17 39
0 21 -17 21 -17 4 4 -17 19 -17 21 0 39 16 19 16 19 -4 2 -18 -15 -22 -15 -37
-2 -16 14 -16 14 -2 -2z"/>
<path d="M585 623 c13 -15 13 -19 -2 -37 -17 -20 -17 -20 2 -4 18 17 20 17 39
0 21 -17 21 -17 4 4 -17 19 -17 21 0 39 16 19 16 19 -4 2 -18 -15 -22 -15 -37
-2 -16 14 -16 14 -2 -2z"/>
<path d="M805 623 c13 -15 13 -19 -2 -37 -17 -20 -17 -20 2 -4 18 17 20 17 39
0 21 -17 21 -17 4 4 -17 19 -17 21 0 39 16 19 16 19 -4 2 -18 -15 -22 -15 -37
-2 -16 14 -16 14 -2 -2z"/>
<path d="M1025 623 c13 -15 13 -19 -2 -37 -17 -20 -17 -20 2 -4 18 17 20 17
39 0 21 -17 21 -17 4 4 -17 19 -17 21 0 39 16 19 16 19 -4 2 -18 -15 -22 -15
-37 -2 -16 14 -16 14 -2 -2z"/>
<path d="M1245 623 c13 -15 13 -19 -2 -37 -17 -20 -17 -20 2 -4 18 17 20 17
39 0 21 -17 21 -17 4 4 -17 19 -17 21 0 39 16 19 16 19 -4 2 -18 -15 -22 -15
-37 -2 -16 14 -16 14 -2 -2z"/>
<path d="M14 568 l-19 -23 23 19 c21 18 27 26 19 26 -2 0 -12 -10 -23 -22z"/>
<path d="M105 550 c21 -22 41 -40 44 -40 3 0 -13 18 -34 40 -21 22 -41 40 -44
40 -3 0 13 -18 34 -40z"/>
<path d="M215 548 l-40 -43 43 40 c23 21 42 40 42 42 0 8 -9 0 -45 -39z"/>
<path d="M325 550 c21 -22 41 -40 44 -40 3 0 -13 18 -34 40 -21 22 -41 40 -44
40 -3 0 13 -18 34 -40z"/>
<path d="M435 548 l-40 -43 43 40 c39 36 47 45 39 45 -2 0 -21 -19 -42 -42z"/>
<path d="M545 550 c21 -22 41 -40 44 -40 3 0 -13 18 -34 40 -21 22 -41 40 -44
40 -3 0 13 -18 34 -40z"/>
<path d="M655 548 l-40 -43 43 40 c39 36 47 45 39 45 -2 0 -21 -19 -42 -42z"/>
<path d="M765 550 c21 -22 41 -40 44 -40 3 0 -13 18 -34 40 -21 22 -41 40 -44
40 -3 0 13 -18 34 -40z"/>
<path d="M875 548 l-40 -43 43 40 c39 36 47 45 39 45 -2 0 -21 -19 -42 -42z"/>
<path d="M985 550 c21 -22 41 -40 44 -40 3 0 -13 18 -34 40 -21 22 -41 40 -44
40 -3 0 13 -18 34 -40z"/>
<path d="M1095 548 l-40 -43 43 40 c39 36 47 45 39 45 -2 0 -21 -19 -42 -42z"/>
<path d="M1205 550 c21 -22 41 -40 44 -40 3 0 -13 18 -34 40 -21 22 -41 40
-44 40 -3 0 13 -18 34 -40z"/>
<path d="M1294 528 l-19 -23 23 19 c21 18 27 26 19 26 -2 0 -12 -10 -23 -22z"/>
<path d="M35 513 c13 -15 13 -19 -2 -37 -17 -20 -17 -20 2 -4 18 17 20 17 39
0 21 -17 21 -17 4 4 -17 19 -17 21 0 39 16 19 16 19 -4 2 -18 -15 -22 -15 -37
-2 -16 14 -16 14 -2 -2z"/>
<path d="M255 513 c13 -15 13 -19 -2 -37 -17 -20 -17 -20 2 -4 18 17 20 17 39
0 21 -17 21 -17 4 4 -17 19 -17 21 0 39 16 19 16 19 -4 2 -18 -15 -22 -15 -37
-2 -16 14 -16 14 -2 -2z"/>
<path d="M475 513 c13 -15 13 -19 -2 -37 -17 -20 -17 -20 2 -4 18 17 20 17 39
0 21 -17 21 -17 4 4 -17 19 -17 21 0 39 16 19 16 19 -4 2 -18 -15 -22 -15 -37
-2 -16 14 -16 14 -2 -2z"/>
<path d="M695 513 c13 -15 13 -19 -2 -37 -17 -20 -17 -20 2 -4 18 17 20 17 39
0 21 -17 21 -17 4 4 -17 19 -17 21 0 39 16 19 16 19 -4 2 -18 -15 -22 -15 -37
-2 -16 14 -16 14 -2 -2z"/>
<path d="M915 513 c13 -15 13 -19 -2 -37 -17 -20 -17 -20 2 -4 18 17 20 17 39
0 21 -17 21 -17 4 4 -17 19 -17 21 0 39 16 19 16 19 -4 2 -18 -15 -22 -15 -37
-2 -16 14 -16 14 -2 -2z"/>
<path d="M1135 513 c13 -15 13 -19 -2 -37 -17 -20 -17 -20 2 -4 18 17 20 17
39 0 21 -17 21 -17 4 4 -17 19 -17 21 0 39 16 19 16 19 -4 2 -18 -15 -22 -15
-37 -2 -16 14 -16 14 -2 -2z"/>
<path d="M105 438 l-40 -43 43 40 c23 21 42 40 42 42 0 8 -9 0 -45 -39z"/>
<path d="M215 440 c21 -22 41 -40 44 -40 3 0 -13 18 -34 40 -21 22 -41 40 -44
40 -3 0 13 -18 34 -40z"/>
<path d="M325 438 l-40 -43 43 40 c23 21 42 40 42 42 0 8 -9 0 -45 -39z"/>
<path d="M435 440 c21 -22 41 -40 44 -40 3 0 -13 18 -34 40 -21 22 -41 40 -44
40 -3 0 13 -18 34 -40z"/>
<path d="M545 438 l-40 -43 43 40 c23 21 42 40 42 42 0 8 -9 0 -45 -39z"/>
<path d="M655 440 c21 -22 41 -40 44 -40 3 0 -13 18 -34 40 -21 22 -41 40 -44
40 -3 0 13 -18 34 -40z"/>
<path d="M765 438 l-40 -43 43 40 c39 36 47 45 39 45 -2 0 -21 -19 -42 -42z"/>
<path d="M875 440 c21 -22 41 -40 44 -40 3 0 -13 18 -34 40 -21 22 -41 40 -44
40 -3 0 13 -18 34 -40z"/>
<path d="M985 438 l-40 -43 43 40 c39 36 47 45 39 45 -2 0 -21 -19 -42 -42z"/>
<path d="M1095 440 c21 -22 41 -40 44 -40 3 0 -13 18 -34 40 -21 22 -41 40
-44 40 -3 0 13 -18 34 -40z"/>
<path d="M1205 438 l-40 -43 43 40 c39 36 47 45 39 45 -2 0 -21 -19 -42 -42z"/>
<path d="M1295 460 c10 -11 20 -20 23 -20 3 0 -3 9 -13 20 -10 11 -20 20 -23
20 -3 0 3 -9 13 -20z"/>
<path d="M15 420 c10 -11 20 -20 23 -20 3 0 -3 9 -13 20 -10 11 -20 20 -23 20
-3 0 3 -9 13 -20z"/>
<path d="M145 403 c13 -15 13 -19 -2 -37 -17 -20 -17 -20 2 -4 18 17 20 17 39
0 21 -17 21 -17 4 4 -17 19 -17 21 0 39 16 19 16 19 -4 2 -18 -15 -22 -15 -37
-2 -16 14 -16 14 -2 -2z"/>
<path d="M365 403 c13 -15 13 -19 -2 -37 -17 -20 -17 -20 2 -4 18 17 20 17 39
0 21 -17 21 -17 4 4 -17 19 -17 21 0 39 16 19 16 19 -4 2 -18 -15 -22 -15 -37
-2 -16 14 -16 14 -2 -2z"/>
<path d="M585 403 c13 -15 13 -19 -2 -37 -17 -20 -17 -20 2 -4 18 17 20 17 39
0 21 -17 21 -17 4 4 -17 19 -17 21 0 39 16 19 16 19 -4 2 -18 -15 -22 -15 -37
-2 -16 14 -16 14 -2 -2z"/>
<path d="M805 403 c13 -15 13 -19 -2 -37 -17 -20 -17 -20 2 -4 18 17 20 17 39
0 21 -17 21 -17 4 4 -17 19 -17 21 0 39 16 19 16 19 -4 2 -18 -15 -22 -15 -37
-2 -16 14 -16 14 -2 -2z"/>
<path d="M1025 403 c13 -15 13 -19 -2 -37 -17 -20 -17 -20 2 -4 18 17 20 17
39 0 21 -17 21 -17 4 4 -17 19 -17 21 0 39 16 19 16 19 -4 2 -18 -15 -22 -15
-37 -2 -16 14 -16 14 -2 -2z"/>
<path d="M1245 403 c13 -15 13 -19 -2 -37 -17 -20 -17 -20 2 -4 18 17 20 17
39 0 21 -17 21 -17 4 4 -17 19 -17 21 0 39 16 19 16 19 -4 2 -18 -15 -22 -15
-37 -2 -16 14 -16 14 -2 -2z"/>
<path d="M14 348 l-19 -23 23 19 c21 18 27 26 19 26 -2 0 -12 -10 -23 -22z"/>
<path d="M105 330 c21 -22 41 -40 44 -40 3 0 -13 18 -34 40 -21 22 -41 40 -44
40 -3 0 13 -18 34 -40z"/>
<path d="M215 328 l-40 -43 43 40 c39 36 47 45 39 45 -2 0 -21 -19 -42 -42z"/>
<path d="M325 330 c21 -22 41 -40 44 -40 3 0 -13 18 -34 40 -21 22 -41 40 -44
40 -3 0 13 -18 34 -40z"/>
<path d="M435 328 l-40 -43 43 40 c39 36 47 45 39 45 -2 0 -21 -19 -42 -42z"/>
<path d="M545 330 c21 -22 41 -40 44 -40 3 0 -13 18 -34 40 -21 22 -41 40 -44
40 -3 0 13 -18 34 -40z"/>
<path d="M655 328 l-40 -43 43 40 c39 36 47 45 39 45 -2 0 -21 -19 -42 -42z"/>
<path d="M765 330 c21 -22 41 -40 44 -40 3 0 -13 18 -34 40 -21 22 -41 40 -44
40 -3 0 13 -18 34 -40z"/>
<path d="M875 328 l-40 -43 43 40 c39 36 47 45 39 45 -2 0 -21 -19 -42 -42z"/>
<path d="M985 330 c21 -22 41 -40 44 -40 3 0 -13 18 -34 40 -21 22 -41 40 -44
40 -3 0 13 -18 34 -40z"/>
<path d="M1095 328 l-40 -43 43 40 c39 36 47 45 39 45 -2 0 -21 -19 -42 -42z"/>
<path d="M1205 330 c21 -22 41 -40 44 -40 3 0 -13 18 -34 40 -21 22 -41 40
-44 40 -3 0 13 -18 34 -40z"/>
<path d="M1294 308 l-19 -23 23 19 c12 11 22 21 22 23 0 8 -8 2 -26 -19z"/>
<path d="M35 293 c13 -15 13 -19 -2 -37 -17 -20 -17 -20 2 -4 18 17 20 17 39
0 21 -17 21 -17 4 4 -17 19 -17 21 0 39 16 19 16 19 -4 2 -18 -15 -22 -15 -37
-2 -16 14 -16 14 -2 -2z"/>
<path d="M255 293 c13 -15 13 -19 -2 -37 -17 -20 -17 -20 2 -4 18 17 20 17 39
0 21 -17 21 -17 4 4 -17 19 -17 21 0 39 16 19 16 19 -4 2 -18 -15 -22 -15 -37
-2 -16 14 -16 14 -2 -2z"/>
<path d="M475 293 c13 -15 13 -19 -2 -37 -17 -20 -17 -20 2 -4 18 17 20 17 39
0 21 -17 21 -17 4 4 -17 19 -17 21 0 39 16 19 16 19 -4 2 -18 -15 -22 -15 -37
-2 -16 14 -16 14 -2 -2z"/>
<path d="M695 293 c13 -15 13 -19 -2 -37 -17 -20 -17 -20 2 -4 18 17 20 17 39
0 21 -17 21 -17 4 4 -17 19 -17 21 0 39 16 19 16 19 -4 2 -18 -15 -22 -15 -37
-2 -16 14 -16 14 -2 -2z"/>
<path d="M915 293 c13 -15 13 -19 -2 -37 -17 -20 -17 -20 2 -4 18 17 20 17 39
0 21 -17 21 -17 4 4 -17 19 -17 21 0 39 16 19 16 19 -4 2 -18 -15 -22 -15 -37
-2 -16 14 -16 14 -2 -2z"/>
<path d="M1135 293 c13 -15 13 -19 -2 -37 -17 -20 -17 -20 2 -4 18 17 20 17
39 0 21 -17 21 -17 4 4 -17 19 -17 21 0 39 16 19 16 19 -4 2 -18 -15 -22 -15
-37 -2 -16 14 -16 14 -2 -2z"/>
<path d="M105 218 l-40 -43 43 40 c39 36 47 45 39 45 -2 0 -21 -19 -42 -42z"/>
<path d="M215 220 c21 -22 41 -40 44 -40 3 0 -13 18 -34 40 -21 22 -41 40 -44
40 -3 0 13 -18 34 -40z"/>
<path d="M325 218 l-40 -43 43 40 c39 36 47 45 39 45 -2 0 -21 -19 -42 -42z"/>
<path d="M435 220 c21 -22 41 -40 44 -40 3 0 -13 18 -34 40 -21 22 -41 40 -44
40 -3 0 13 -18 34 -40z"/>
<path d="M545 218 l-40 -43 43 40 c23 21 42 40 42 42 0 8 -9 0 -45 -39z"/>
<path d="M655 220 c21 -22 41 -40 44 -40 3 0 -13 18 -34 40 -21 22 -41 40 -44
40 -3 0 13 -18 34 -40z"/>
<path d="M765 218 l-40 -43 43 40 c39 36 47 45 39 45 -2 0 -21 -19 -42 -42z"/>
<path d="M875 220 c21 -22 41 -40 44 -40 3 0 -13 18 -34 40 -21 22 -41 40 -44
40 -3 0 13 -18 34 -40z"/>
<path d="M985 218 l-40 -43 43 40 c39 36 47 45 39 45 -2 0 -21 -19 -42 -42z"/>
<path d="M1095 220 c21 -22 41 -40 44 -40 3 0 -13 18 -34 40 -21 22 -41 40
-44 40 -3 0 13 -18 34 -40z"/>
<path d="M1205 218 l-40 -43 43 40 c39 36 47 45 39 45 -2 0 -21 -19 -42 -42z"/>
<path d="M1295 240 c10 -11 20 -20 23 -20 3 0 -3 9 -13 20 -10 11 -20 20 -23
20 -3 0 3 -9 13 -20z"/>
<path d="M15 200 c10 -11 20 -20 23 -20 3 0 -3 9 -13 20 -10 11 -20 20 -23 20
-3 0 3 -9 13 -20z"/>
<path d="M145 183 c13 -15 13 -19 -2 -37 -17 -20 -17 -20 2 -4 18 17 20 17 39
0 21 -17 21 -17 4 4 -17 19 -17 21 0 39 16 19 16 19 -4 2 -18 -15 -22 -15 -37
-2 -16 14 -16 14 -2 -2z"/>
<path d="M365 183 c13 -15 13 -19 -2 -37 -17 -20 -17 -20 2 -4 18 17 20 17 39
0 21 -17 21 -17 4 4 -17 19 -17 21 0 39 16 19 16 19 -4 2 -18 -15 -22 -15 -37
-2 -16 14 -16 14 -2 -2z"/>
<path d="M585 183 c13 -15 13 -19 -2 -37 -17 -20 -17 -20 2 -4 18 17 20 17 39
0 21 -17 21 -17 4 4 -17 19 -17 21 0 39 16 19 16 19 -4 2 -18 -15 -22 -15 -37
-2 -16 14 -16 14 -2 -2z"/>
<path d="M805 183 c13 -15 13 -19 -2 -37 -17 -20 -17 -20 2 -4 18 17 20 17 39
0 21 -17 21 -17 4 4 -17 19 -17 21 0 39 16 19 16 19 -4 2 -18 -15 -22 -15 -37
-2 -16 14 -16 14 -2 -2z"/>
<path d="M1025 183 c13 -15 13 -19 -2 -37 -17 -20 -17 -20 2 -4 18 17 20 17
39 0 21 -17 21 -17 4 4 -17 19 -17 21 0 39 16 19 16 19 -4 2 -18 -15 -22 -15
-37 -2 -16 14 -16 14 -2 -2z"/>
<path d="M1245 183 c13 -15 13 -19 -2 -37 -17 -20 -17 -20 2 -4 18 17 20 17
39 0 21 -17 21 -17 4 4 -17 19 -17 21 0 39 16 19 16 19 -4 2 -18 -15 -22 -15
-37 -2 -16 14 -16 14 -2 -2z"/>
<path d="M14 128 l-19 -23 23 19 c12 11 22 21 22 23 0 8 -8 2 -26 -19z"/>
<path d="M105 110 c21 -22 41 -40 44 -40 3 0 -13 18 -34 40 -21 22 -41 40 -44
40 -3 0 13 -18 34 -40z"/>
<path d="M215 108 l-40 -43 43 40 c23 21 42 40 42 42 0 8 -9 0 -45 -39z"/>
<path d="M325 110 c21 -22 41 -40 44 -40 3 0 -13 18 -34 40 -21 22 -41 40 -44
40 -3 0 13 -18 34 -40z"/>
<path d="M435 108 l-40 -43 43 40 c39 36 47 45 39 45 -2 0 -21 -19 -42 -42z"/>
<path d="M545 110 c21 -22 41 -40 44 -40 3 0 -13 18 -34 40 -21 22 -41 40 -44
40 -3 0 13 -18 34 -40z"/>
<path d="M655 108 l-40 -43 43 40 c23 21 42 40 42 42 0 8 -9 0 -45 -39z"/>
<path d="M765 110 c21 -22 41 -40 44 -40 3 0 -13 18 -34 40 -21 22 -41 40 -44
40 -3 0 13 -18 34 -40z"/>
<path d="M875 108 l-40 -43 43 40 c23 21 42 40 42 42 0 8 -9 0 -45 -39z"/>
<path d="M985 110 c21 -22 41 -40 44 -40 3 0 -13 18 -34 40 -21 22 -41 40 -44
40 -3 0 13 -18 34 -40z"/>
<path d="M1095 108 l-40 -43 43 40 c23 21 42 40 42 42 0 8 -9 0 -45 -39z"/>
<path d="M1205 110 c21 -22 41 -40 44 -40 3 0 -13 18 -34 40 -21 22 -41 40
-44 40 -3 0 13 -18 34 -40z"/>
<path d="M1294 88 l-19 -23 23 19 c12 11 22 21 22 23 0 8 -8 2 -26 -19z"/>
<path d="M35 73 c13 -15 13 -19 -2 -37 -17 -20 -17 -20 2 -4 18 17 20 17 39 0
21 -17 21 -17 4 4 -17 19 -17 21 0 39 16 19 16 19 -4 2 -18 -15 -22 -15 -37
-2 -16 14 -16 14 -2 -2z"/>
<path d="M255 73 c13 -15 13 -19 -2 -37 -17 -20 -17 -20 2 -4 18 17 20 17 39
0 21 -17 21 -17 4 4 -17 19 -17 21 0 39 16 19 16 19 -4 2 -18 -15 -22 -15 -37
-2 -16 14 -16 14 -2 -2z"/>
<path d="M475 73 c13 -15 13 -19 -2 -37 -17 -20 -17 -20 2 -4 18 17 20 17 39
0 21 -17 21 -17 4 4 -17 19 -17 21 0 39 16 19 16 19 -4 2 -18 -15 -22 -15 -37
-2 -16 14 -16 14 -2 -2z"/>
<path d="M695 73 c13 -15 13 -19 -2 -37 -17 -20 -17 -20 2 -4 18 17 20 17 39
0 21 -17 21 -17 4 4 -17 19 -17 21 0 39 16 19 16 19 -4 2 -18 -15 -22 -15 -37
-2 -16 14 -16 14 -2 -2z"/>
<path d="M915 73 c13 -15 13 -19 -2 -37 -17 -20 -17 -20 2 -4 18 17 20 17 39
0 21 -17 21 -17 4 4 -17 19 -17 21 0 39 16 19 16 19 -4 2 -18 -15 -22 -15 -37
-2 -16 14 -16 14 -2 -2z"/>
<path d="M1135 73 c13 -15 13 -19 -2 -37 -17 -20 -17 -20 2 -4 18 17 20 17 39
0 21 -17 21 -17 4 4 -17 19 -17 21 0 39 16 19 16 19 -4 2 -18 -15 -22 -15 -37
-2 -16 14 -16 14 -2 -2z"/>
<path d="M124 18 l-19 -23 23 19 c21 18 27 26 19 26 -2 0 -12 -10 -23 -22z"/>
<path d="M195 20 c10 -11 20 -20 23 -20 3 0 -3 9 -13 20 -10 11 -20 20 -23 20
-3 0 3 -9 13 -20z"/>
<path d="M344 18 l-19 -23 23 19 c21 18 27 26 19 26 -2 0 -12 -10 -23 -22z"/>
<path d="M415 20 c10 -11 20 -20 23 -20 3 0 -3 9 -13 20 -10 11 -20 20 -23 20
-3 0 3 -9 13 -20z"/>
<path d="M564 18 l-19 -23 23 19 c21 18 27 26 19 26 -2 0 -12 -10 -23 -22z"/>
<path d="M635 20 c10 -11 20 -20 23 -20 3 0 -3 9 -13 20 -10 11 -20 20 -23 20
-3 0 3 -9 13 -20z"/>
<path d="M784 18 l-19 -23 23 19 c21 18 27 26 19 26 -2 0 -12 -10 -23 -22z"/>
<path d="M855 20 c10 -11 20 -20 23 -20 3 0 -3 9 -13 20 -10 11 -20 20 -23 20
-3 0 3 -9 13 -20z"/>
<path d="M1004 18 l-19 -23 23 19 c21 18 27 26 19 26 -2 0 -12 -10 -23 -22z"/>
<path d="M1075 20 c10 -11 20 -20 23 -20 3 0 -3 9 -13 20 -10 11 -20 20 -23
20 -3 0 3 -9 13 -20z"/>
<path d="M1224 18 l-19 -23 23 19 c21 18 27 26 19 26 -2 0 -12 -10 -23 -22z"/>
<path d="M1295 20 c10 -11 20 -20 23 -20 3 0 -3 9 -13 20 -10 11 -20 20 -23
20 -3 0 3 -9 13 -20z"/>
</g>
</svg>
