<?xml version="1.0" encoding="UTF-8" standalone="no"?>
<!-- Created with Inkscape (http://www.inkscape.org/) -->

<svg
   xmlns:dc="http://purl.org/dc/elements/1.1/"
   xmlns:cc="http://creativecommons.org/ns#"
   xmlns:rdf="http://www.w3.org/1999/02/22-rdf-syntax-ns#"
   xmlns:svg="http://www.w3.org/2000/svg"
   xmlns="http://www.w3.org/2000/svg"
   xmlns:sodipodi="http://sodipodi.sourceforge.net/DTD/sodipodi-0.dtd"
   xmlns:inkscape="http://www.inkscape.org/namespaces/inkscape"
   version="1.1"
   id="svg885"
   width="1053.8978"
   height="177.58862"
   viewBox="0 0 1053.8978 177.58862"
   sodipodi:docname="akorn-banner-black-source.svg"
   inkscape:version="0.92.3 (2405546, 2018-03-11)">
  <sodipodi:namedview
     pagecolor="#ffffff"
     bordercolor="#666666"
     borderopacity="1"
     objecttolerance="10"
     gridtolerance="10"
     guidetolerance="10"
     inkscape:pageopacity="0"
     inkscape:pageshadow="2"
     inkscape:window-width="1366"
     inkscape:window-height="703"
     id="namedview887"
     showgrid="false"
     inkscape:zoom="0.61406318"
     inkscape:cx="438.57915"
     inkscape:cy="170.25719"
     inkscape:window-x="0"
     inkscape:window-y="40"
     inkscape:window-maximized="1"
     inkscape:current-layer="svg885"
     fit-margin-top="0"
     fit-margin-left="0"
     fit-margin-right="0"
     fit-margin-bottom="0" />
  <metadata
     id="metadata891">
    <rdf:RDF>
      <cc:Work
         rdf:about="">
        <dc:format>image/svg+xml</dc:format>
        <dc:type
           rdf:resource="http://purl.org/dc/dcmitype/StillImage" />
        <dc:title></dc:title>
      </cc:Work>
    </rdf:RDF>
  </metadata>
  <defs
     id="defs889" />
  <g
     transform="translate(-267.27378,-8.9603337)"
     id="g1686">
    <path
       style="fill:none;stroke:#000000;stroke-width:1px;stroke-linecap:butt;stroke-linejoin:miter;stroke-opacity:1"
       d="m 350.13077,177.6323 12.4158,8.24048 10.76583,-10.85104 -8.32169,-12.40947 5.07869,-12.77028 15.08262,-3.2157 0.0988,-15.15817 -15.5536,-3.16345 -2.94877,-6.53328"
       id="path1428"
       inkscape:connector-curvature="0"
       sodipodi:nodetypes="ccccccccc" />
    <path
       style="fill:none;stroke:#000000;stroke-width:1px;stroke-linecap:butt;stroke-linejoin:miter;stroke-opacity:1"
       d="m 302.8965,177.66478 -12.4158,8.24048 -10.76583,-10.85104 8.32169,-12.40947 -5.07869,-12.77028 -15.08262,-3.2157 -0.0988,-15.15817 15.5536,-3.16345 2.94877,-6.53328"
       id="path1428-2"
       inkscape:connector-curvature="0"
       sodipodi:nodetypes="ccccccccc" />
    <path
       style="fill:none;stroke:#000000;stroke-width:4.91338587;stroke-linecap:butt;stroke-linejoin:miter;stroke-miterlimit:4;stroke-dasharray:none;stroke-opacity:1"
       d="m 346.75841,11.855656 c -5.82788,4.81305 -11.23625,9.77118 -14.97853,15.32031 -5.34198,7.3593 -7.06803,13.614913 -8.51562,19.878911 -0.63897,1.405221 -2.01402,2.533972 -2.16992,2.542968 -6.19393,1.60298 -11.97384,3.116992 -16.57813,6.34375 -3.87642,2.911759 -7.94985,5.932909 -12.3125,13.707032 -2.47693,4.284392 -6.34794,12.104271 -5.05274,20.392578 0.31887,2.20645 1.77657,4.435786 3.41797,5.576176 2.99162,2.127 20.90862,5.932209 35.22462,5.634759 12.68854,-0.1076 23.72398,-2.565209 35.21485,-5.224609 1.6696,-0.90838 3.15268,-0.32796 4.82227,-4.404295 0.8262,-5.272323 -0.16473,-10.800867 -2.04688,-16.064453 -2.12396,-5.794286 -5.77777,-10.536991 -9.38086,-14.267578 -3.91945,-3.015669 -7.09171,-5.462953 -12.45117,-7.320313 -2.77281,-0.919654 -4.97541,-1.438322 -8.32814,-2.449219 -1.25546,-0.02055 -1.80987,-1.842003 -2.10742,-3.179687 -0.10338,-2.375606 1.24063,-5.420161 2.72656,-8.5293 1.61021,-4.0385 4.65879,-7.82337 8.37502,-11.49023 2.94891,-2.04557 5.93911,-4.37475 9.61523,-5.33399 2.25651,-1.03006 4.10287,-1.24142 6.13867,-1.83007 1.52224,-0.41887 0.12492,-3.98937 -0.49609,-4.01563 -6.04007,-3.00729 -7.19554,-3.40133 -11.11719,-5.28711 z M 292.358,99.701361 c 0.60483,14.304219 0.10626,29.326649 1.58594,43.505869 0.85806,6.11638 1.7348,12.10737 4.51953,17.42969 2.95136,6.14716 7.66815,9.532 12.39649,13.14062 1.75107,1.43411 1.21915,-0.39129 1.81641,-0.60547 1.5534,-3.63495 6.6341,-16.11114 8.1875,-19.74609 0.71957,-1.73556 -0.30628,-2.33898 -0.80469,-2.64453 -3.22725,-2.79684 -6.78609,-4.55446 -7.14844,-11.67578 -0.0874,-8.22788 5.10366,-13.63148 13.79297,-14.02735 6.32416,-0.17348 12.48512,4.44909 13.28125,13.6543 0.20886,3.5581 -2.50474,9.4577 -7.30469,11.96484 -1.69741,0.88661 -1.5912,0.95679 -0.65234,3.07032 3.07037,7.13102 4.41932,10.73964 8.23828,19.96484 0.22881,1.55009 1.97941,-0.0856 2.79494,-0.69922 3.45907,-2.70197 5.10112,-3.10605 10.5332,-10.5332 2.45411,-4.21854 4.13135,-10.85235 5.3125,-19.57227 1.5259,-12.90257 1.49812,-28.17428 1.69531,-43.029299 -10.10487,2.672169 -21.56312,4.147579 -33.68751,4.125649 -10.39866,0.20097 -24.38668,-0.65492 -34.55665,-4.322919 z"
       id="path1445"
       inkscape:connector-curvature="0"
       sodipodi:nodetypes="ccccccccccccccccccccccccccccccccccccccccc" />
    <g
       id="g2277"
       transform="translate(239.13925,0.23260575)"
       style="fill:#000000;stroke:#000000">
      <path
         sodipodi:nodetypes="csccccscccscccccsscccsccc"
         inkscape:connector-curvature="0"
         id="path1044-7"
         d="m 84.525113,84.517568 c -2.1683,-2.137546 -3.6759,-3.8 -3.44602,-3.8 0.15306,0 4.28298,4.124522 5.16675,5.16 1.00351,1.175781 0.237,0.569957 -1.72073,-1.36 z m 7.90586,-0.84 c 2.30191,-2.474363 3.06233,-3.204813 3.19656,-3.070584 0.14612,0.146122 -0.13333,0.440456 -2.74275,2.88883 l -2.24,2.101754 z m -2.18619,-2.343624 c -0.99359,-0.870491 -1.80099,-1.416376 -2.0949,-1.416376 -0.15779,0 -0.77355,0.412867 -1.36837,0.917482 l -1.08147,0.917481 0.76424,-0.938277 c 1.21019,-1.485788 1.25093,-1.865524 0.31896,-2.9731 l -0.45301,-0.538378 0.76953,0.587397 c 0.42324,0.323067 0.83133,0.587395 0.90686,0.587395 0.36939,0 1.0843,-0.395381 1.81746,-1.005139 l 0.81143,-0.674861 -0.83536,1.008307 c -0.45946,0.554568 -0.83537,1.132547 -0.83537,1.284399 0,0.327784 0.29226,0.773926 1.24945,1.907294 0.8122,0.961701 0.81807,1.02633 0.0306,0.336376 z"
         style="fill:#000000;stroke:#000000;stroke-width:0.16" />
      <path
         sodipodi:nodetypes="csccccscccscccccsscccsccc"
         inkscape:connector-curvature="0"
         id="path1044-1"
         d="m 93.379482,75.663199 c -2.1683,-2.137546 -3.6759,-3.8 -3.44602,-3.8 0.15306,0 4.28298,4.124522 5.16675,5.16 1.00351,1.175781 0.237,0.569957 -1.72073,-1.36 z m 7.905858,-0.84 c 2.30191,-2.474363 3.06233,-3.204813 3.19656,-3.070584 0.14612,0.146122 -0.13333,0.440456 -2.74275,2.88883 l -2.239998,2.101754 z m -2.186188,-2.343624 c -0.99359,-0.870491 -1.80099,-1.416376 -2.0949,-1.416376 -0.15779,0 -0.77355,0.412867 -1.36837,0.917482 l -1.08147,0.917481 0.76424,-0.938277 c 1.21019,-1.485788 1.25093,-1.865524 0.31896,-2.9731 l -0.45301,-0.538378 0.76953,0.587397 c 0.42324,0.323067 0.83133,0.587395 0.90686,0.587395 0.36939,0 1.0843,-0.395381 1.81746,-1.005139 l 0.81143,-0.674861 -0.83536,1.008307 c -0.45946,0.554568 -0.83537,1.132547 -0.83537,1.284399 0,0.327784 0.29226,0.773926 1.24945,1.907294 0.8122,0.961701 0.81807,1.02633 0.0306,0.336376 z"
         style="fill:#000000;stroke:#000000;stroke-width:0.16" />
      <path
         sodipodi:nodetypes="csccccscccscccccsscccsccc"
         inkscape:connector-curvature="0"
         id="path1044-6"
         d="m 75.763948,75.663199 c -2.1683,-2.137546 -3.6759,-3.8 -3.44602,-3.8 0.15306,0 4.28298,4.124522 5.16675,5.16 1.00351,1.17578 0.237,0.569957 -1.72073,-1.36 z m 7.90586,-0.84 c 2.30191,-2.474363 3.06233,-3.204813 3.19656,-3.070584 0.14612,0.146122 -0.13333,0.440456 -2.74275,2.88883 l -2.24,2.101754 z m -2.18619,-2.343624 c -0.99359,-0.870491 -1.80099,-1.416376 -2.0949,-1.416376 -0.15779,0 -0.77355,0.412867 -1.36837,0.917482 l -1.08147,0.917481 0.76424,-0.938277 c 1.21019,-1.485788 1.25093,-1.865524 0.31896,-2.9731 l -0.45301,-0.538379 0.76953,0.587398 c 0.42324,0.323067 0.83133,0.587395 0.90686,0.587395 0.36939,0 1.0843,-0.395381 1.81746,-1.00514 l 0.81143,-0.674861 -0.83536,1.008308 c -0.45946,0.554568 -0.83537,1.132547 -0.83537,1.284399 0,0.327784 0.29226,0.773926 1.24945,1.907294 0.8122,0.961701 0.81807,1.02633 0.0306,0.336376 z"
         style="fill:#000000;stroke:#000000;stroke-width:0.16" />
      <path
         sodipodi:nodetypes="csccccscccscccccsscccsccc"
         inkscape:connector-curvature="0"
         id="path1044-9"
         d="m 84.525113,66.902034 c -2.1683,-2.137546 -3.6759,-3.8 -3.44602,-3.8 0.15306,0 4.28298,4.124522 5.16675,5.16 1.00351,1.175781 0.237,0.569957 -1.72073,-1.36 z m 7.905859,-0.84 c 2.30191,-2.474363 3.06233,-3.204813 3.19656,-3.070584 0.14612,0.146122 -0.13333,0.440456 -2.74275,2.88883 l -2.239999,2.101754 z M 90.244783,63.71841 c -0.99359,-0.870491 -1.80099,-1.416376 -2.0949,-1.416376 -0.15779,0 -0.77355,0.412867 -1.36837,0.917482 l -1.08147,0.917481 0.76424,-0.938277 c 1.21019,-1.485788 1.25093,-1.865524 0.31896,-2.9731 l -0.45301,-0.538378 0.76953,0.587397 c 0.42324,0.323067 0.83133,0.587395 0.90686,0.587395 0.36939,0 1.0843,-0.395381 1.81746,-1.005139 l 0.81143,-0.674861 -0.83536,1.008307 c -0.45946,0.554568 -0.83537,1.132547 -0.83537,1.284399 0,0.327784 0.29226,0.773926 1.24945,1.907294 0.812199,0.961701 0.818069,1.02633 0.0306,0.336376 z"
         style="fill:#000000;stroke:#000000;stroke-width:0.16" />
      <path
         sodipodi:nodetypes="csccccscccscccccsscccsccc"
         inkscape:connector-curvature="0"
         id="path1044-8"
         d="m 66.909579,84.424364 c -2.1683,-2.137546 -3.6759,-3.8 -3.44602,-3.8 0.15306,0 4.28298,4.124522 5.16675,5.16 1.00351,1.175781 0.237,0.569957 -1.72073,-1.36 z m 7.905859,-0.84 c 2.30191,-2.474363 3.06233,-3.204813 3.19656,-3.070584 0.14612,0.146122 -0.13333,0.440456 -2.74275,2.88883 l -2.239999,2.101754 z M 72.629249,81.24074 c -0.99359,-0.870491 -1.80099,-1.416376 -2.0949,-1.416376 -0.15779,0 -0.77355,0.412867 -1.36837,0.917482 l -1.08147,0.917481 0.76424,-0.938277 c 1.21019,-1.485788 1.25093,-1.865524 0.31896,-2.9731 l -0.45301,-0.538378 0.76953,0.587397 c 0.42324,0.323067 0.83133,0.587395 0.90686,0.587395 0.36939,0 1.0843,-0.395381 1.81746,-1.005139 l 0.81143,-0.674861 -0.83536,1.008307 c -0.45946,0.554568 -0.83537,1.132547 -0.83537,1.284399 0,0.327784 0.29226,0.773926 1.24945,1.907294 0.812199,0.961701 0.818069,1.02633 0.0306,0.336376 z"
         style="fill:#000000;stroke:#000000;stroke-width:0.16" />
      <path
         sodipodi:nodetypes="csccccscccscccccsscccsccc"
         inkscape:connector-curvature="0"
         id="path1044-13"
         d="m 58.241618,93.185529 c -2.1683,-2.137546 -3.6759,-3.8 -3.44602,-3.8 0.15306,0 4.28298,4.124522 5.16675,5.16 1.00351,1.175781 0.237,0.569957 -1.72073,-1.36 z m 7.90586,-0.84 c 2.30191,-2.474363 3.06233,-3.204813 3.19656,-3.070584 0.14612,0.146122 -0.13333,0.440456 -2.74275,2.88883 l -2.24,2.101754 z m -2.18619,-2.343624 c -0.99359,-0.870491 -1.80099,-1.416376 -2.0949,-1.416376 -0.15779,0 -0.77355,0.412867 -1.36837,0.917482 l -1.08147,0.917481 0.76424,-0.938277 c 1.21019,-1.485788 1.25093,-1.865524 0.31896,-2.9731 l -0.45301,-0.538378 0.76953,0.587397 c 0.42324,0.323067 0.83133,0.587395 0.90686,0.587395 0.36939,0 1.0843,-0.395381 1.81746,-1.005139 l 0.81143,-0.674861 -0.83536,1.008307 c -0.45946,0.554568 -0.83537,1.132547 -0.83537,1.284399 0,0.327784 0.29226,0.773926 1.24945,1.907294 0.8122,0.961701 0.81807,1.02633 0.0306,0.336376 z"
         style="fill:#000000;stroke:#000000;stroke-width:0.16" />
      <path
         sodipodi:nodetypes="csccccscccscccccsscccsccc"
         inkscape:connector-curvature="0"
         id="path1044-3"
         d="m 75.763948,93.278733 c -2.1683,-2.137546 -3.6759,-3.8 -3.44602,-3.8 0.15306,0 4.28298,4.124522 5.16675,5.16 1.00351,1.175781 0.237,0.569957 -1.72073,-1.36 z m 7.90586,-0.84 c 2.30191,-2.474363 3.06233,-3.204813 3.19656,-3.070584 0.14612,0.146122 -0.13333,0.440456 -2.74275,2.88883 l -2.24,2.101754 z m -2.18619,-2.343624 c -0.99359,-0.870491 -1.80099,-1.416376 -2.0949,-1.416376 -0.15779,0 -0.77355,0.412867 -1.36837,0.917482 l -1.08147,0.917481 0.76424,-0.938277 c 1.21019,-1.485788 1.25093,-1.865524 0.31896,-2.9731 l -0.45301,-0.538378 0.76953,0.587397 c 0.42324,0.323067 0.83133,0.587395 0.90686,0.587395 0.36939,0 1.0843,-0.395381 1.81746,-1.005139 l 0.81143,-0.674861 -0.83536,1.008307 c -0.45946,0.554568 -0.83537,1.132547 -0.83537,1.284399 0,0.327784 0.29226,0.773926 1.24945,1.907294 0.8122,0.961701 0.81807,1.02633 0.0306,0.336376 z"
         style="fill:#000000;stroke:#000000;stroke-width:0.16" />
      <path
         sodipodi:nodetypes="csccccscccscccccsscccsccc"
         inkscape:connector-curvature="0"
         id="path1044-37"
         d="m 93.286278,93.278733 c -2.1683,-2.137546 -3.6759,-3.8 -3.44602,-3.8 0.15306,0 4.28298,4.124522 5.16675,5.16 1.00351,1.175781 0.237,0.569957 -1.72073,-1.36 z m 7.905862,-0.84 c 2.30191,-2.474363 3.06233,-3.204813 3.19656,-3.070584 0.14612,0.146122 -0.13333,0.440456 -2.74275,2.88883 l -2.240002,2.101754 z m -2.186192,-2.343624 c -0.99359,-0.870491 -1.80099,-1.416376 -2.0949,-1.416376 -0.15779,0 -0.77355,0.412867 -1.36837,0.917482 l -1.08147,0.917481 0.76424,-0.938277 c 1.21019,-1.485788 1.25093,-1.865524 0.31896,-2.9731 l -0.45301,-0.538378 0.76953,0.587397 c 0.42324,0.323067 0.83133,0.587395 0.90686,0.587395 0.36939,0 1.0843,-0.395381 1.81746,-1.005139 l 0.81143,-0.674861 -0.83536,1.008307 c -0.45946,0.554568 -0.83537,1.132547 -0.83537,1.284399 0,0.327784 0.29226,0.773926 1.24945,1.907294 0.812199,0.961701 0.818069,1.02633 0.0306,0.336376 z"
         style="fill:#000000;stroke:#000000;stroke-width:0.16" />
      <path
         sodipodi:nodetypes="csccccscccscccccsscccsccc"
         inkscape:connector-curvature="0"
         id="path1044-98"
         d="m 102.14065,84.424364 c -2.168303,-2.137546 -3.675903,-3.8 -3.446023,-3.8 0.15306,0 4.282983,4.124522 5.166753,5.16 1.00351,1.175781 0.237,0.569957 -1.72073,-1.36 z m 7.90586,-0.84 c 2.30191,-2.474363 3.06233,-3.204813 3.19656,-3.070584 0.14612,0.146122 -0.13333,0.440456 -2.74275,2.88883 l -2.24,2.101754 z m -2.18619,-2.343624 c -0.99359,-0.870491 -1.80099,-1.416376 -2.0949,-1.416376 -0.15779,0 -0.77355,0.412867 -1.36837,0.917482 l -1.08147,0.917481 0.76424,-0.938277 c 1.21019,-1.485788 1.25093,-1.865524 0.31896,-2.9731 l -0.45301,-0.538378 0.76953,0.587397 c 0.42324,0.323067 0.83133,0.587395 0.90686,0.587395 0.36939,0 1.0843,-0.395381 1.81746,-1.005139 l 0.81143,-0.674861 -0.83536,1.008307 c -0.45946,0.554568 -0.83537,1.132547 -0.83537,1.284399 0,0.327784 0.29226,0.773926 1.24945,1.907294 0.8122,0.961701 0.81807,1.02633 0.0306,0.336376 z"
         style="fill:#000000;stroke:#000000;stroke-width:0.16" />
      <path
         sodipodi:nodetypes="csccccscccscccccsscccsccc"
         inkscape:connector-curvature="0"
         id="path1044-67"
         d="m 110.95641,75.657545 c -2.1683,-2.137546 -3.6759,-3.8 -3.44602,-3.8 0.15306,0 4.28298,4.124522 5.16675,5.16 1.00351,1.175781 0.237,0.569957 -1.72073,-1.36 z m 7.90586,-0.84 c 2.30191,-2.474363 3.06233,-3.204813 3.19656,-3.070584 0.14612,0.146122 -0.13333,0.440456 -2.74275,2.88883 l -2.24,2.101754 z m -2.18619,-2.343624 c -0.99359,-0.870491 -1.80099,-1.416376 -2.0949,-1.416376 -0.15779,0 -0.77355,0.412867 -1.36837,0.917482 l -1.08147,0.917481 0.76424,-0.938277 c 1.21019,-1.485788 1.25093,-1.865524 0.31896,-2.9731 l -0.45301,-0.538378 0.76953,0.587397 c 0.42324,0.323067 0.83133,0.587395 0.90686,0.587395 0.36939,0 1.0843,-0.395381 1.81746,-1.005139 l 0.81143,-0.674861 -0.83536,1.008307 c -0.45946,0.554568 -0.83537,1.132547 -0.83537,1.284399 0,0.327784 0.29226,0.773926 1.24945,1.907294 0.8122,0.961701 0.81807,1.02633 0.0306,0.336376 z"
         style="fill:#000000;stroke:#000000;stroke-width:0.16" />
      <path
         sodipodi:nodetypes="csccccscccscccccsscccsccc"
         inkscape:connector-curvature="0"
         id="path1044-0"
         d="m 102.11335,66.863428 c -2.168302,-2.137546 -3.675902,-3.8 -3.446022,-3.8 0.15306,0 4.282982,4.124522 5.166752,5.16 1.00351,1.175781 0.237,0.569957 -1.72073,-1.36 z m 7.90586,-0.84 c 2.30191,-2.474363 3.06233,-3.204813 3.19656,-3.070584 0.14612,0.146122 -0.13333,0.440456 -2.74275,2.88883 l -2.24,2.101754 z m -2.18619,-2.343624 c -0.99359,-0.870491 -1.80099,-1.416376 -2.0949,-1.416376 -0.15779,0 -0.77355,0.412867 -1.36837,0.917482 l -1.08147,0.917481 0.76424,-0.938277 c 1.21019,-1.485788 1.25093,-1.865524 0.31896,-2.9731 l -0.45301,-0.538378 0.76953,0.587397 c 0.42324,0.323067 0.83133,0.587395 0.90686,0.587395 0.36939,0 1.0843,-0.395381 1.81746,-1.005139 l 0.81143,-0.674861 -0.83536,1.008307 c -0.45946,0.554568 -0.83537,1.132547 -0.83537,1.284399 0,0.327784 0.29226,0.773926 1.24945,1.907294 0.8122,0.961701 0.81807,1.02633 0.0306,0.336376 z"
         style="fill:#000000;stroke:#000000;stroke-width:0.16" />
      <path
         sodipodi:nodetypes="csccccccccscc"
         inkscape:connector-curvature="0"
         id="path1044-4"
         d="m 119.66298,84.424364 c -2.1683,-2.137546 -3.6759,-3.8 -3.44602,-3.8 0.15306,0 4.28298,4.124522 5.16675,5.16 1.00351,1.175781 0.237,0.569957 -1.72073,-1.36 z m 3.62477,-4.6 c -0.15779,0 -0.77355,0.412867 -1.36837,0.917482 l -1.08147,0.917481 0.76424,-0.938277 c 1.21019,-1.485788 1.25093,-1.865524 0.31896,-2.9731 l -0.45301,-0.538378 0.76953,0.587397 c 0.42324,0.323067 0.83133,0.587395 0.90686,0.587395 0.35682,0.377635 0.67992,1.042537 0.14326,1.44 z"
         style="fill:#000000;stroke:#000000;stroke-width:0.16" />
      <path
         sodipodi:nodetypes="csccccscccscccccsscccsccc"
         inkscape:connector-curvature="0"
         id="path1044-84"
         d="m 110.90181,93.278733 c -2.1683,-2.137546 -3.6759,-3.8 -3.44602,-3.8 0.15306,0 4.28298,4.124522 5.16675,5.16 1.00351,1.17578 0.237,0.569957 -1.72073,-1.36 z m 7.90586,-0.84 c 2.30191,-2.474363 3.06233,-3.204813 3.19656,-3.070584 0.14612,0.146122 -0.13333,0.440456 -2.74275,2.88883 l -2.24,2.101754 z m -2.18619,-2.343624 c -0.99359,-0.870491 -1.80099,-1.416376 -2.0949,-1.416376 -0.15779,0 -0.77355,0.412867 -1.36837,0.917482 l -1.08147,0.917481 0.76424,-0.938277 c 1.21019,-1.485788 1.25093,-1.865524 0.31896,-2.9731 l -0.45301,-0.538378 0.76953,0.587397 c 0.42324,0.323067 0.83133,0.587395 0.90686,0.587395 0.36939,0 1.0843,-0.395381 1.81746,-1.005139 l 0.81143,-0.674861 -0.83536,1.008307 c -0.45946,0.554568 -0.83537,1.132547 -0.83537,1.284399 0,0.327784 0.29226,0.773926 1.24945,1.907294 0.8122,0.961701 0.81807,1.02633 0.0306,0.336376 z"
         style="fill:#000000;stroke:#000000;stroke-width:0.16" />
      <path
         sodipodi:nodetypes="ccssccccc"
         inkscape:connector-curvature="0"
         id="path1044-81"
         d="m 104.30558,95.456687 -0.45301,-0.538378 0.76953,0.587397 c 0.42324,0.323067 0.83133,0.587395 0.90686,0.587395 0.36939,0 1.0843,-0.395381 1.81746,-1.005139 l 0.81143,-0.674861 -0.83536,1.008307 c -0.45946,0.554568 -0.83537,1.132547 -0.83537,1.284399 -2.5907,0.560048 0.21979,1.130869 -2.18154,-1.24912 z"
         style="fill:#000000;stroke:#000000;stroke-width:0.16" />
      <path
         sodipodi:nodetypes="cscccccsscccsccc"
         inkscape:connector-curvature="0"
         id="path1044-68"
         d="m 90.244783,98.949478 c -0.99359,-0.870491 -1.80099,-1.416376 -2.0949,-1.416376 -0.15779,0 -0.77355,0.412867 -1.36837,0.917482 l -1.08147,0.917481 0.76424,-0.938277 c 1.21019,-1.485788 1.25093,-1.865524 0.31896,-2.9731 l -0.45301,-0.538378 0.76953,0.587397 c 0.42324,0.323067 0.83133,0.587395 0.90686,0.587395 0.36939,0 1.0843,-0.395381 1.81746,-1.005139 l 0.81143,-0.674861 -0.83536,1.008307 c -0.45946,0.554568 -0.83537,1.132547 -0.83537,1.284399 0,0.327784 0.29226,0.773926 1.24945,1.907294 0.8122,0.961701 0.81807,1.02633 0.0306,0.336376 z"
         style="fill:#000000;stroke:#000000;stroke-width:0.16" />
      <path
         sodipodi:nodetypes="cccssccccc"
         inkscape:connector-curvature="0"
         id="path1044-52"
         d="m 70.534349,97.533102 c -4.745345,3.121728 0.482173,0.15997 -1.36664,-2.076414 l -0.45301,-0.538378 0.76953,0.587397 c 0.42324,0.323067 0.83133,0.587395 0.90686,0.587395 0.36939,0 1.0843,-0.395381 1.81746,-1.005139 l 0.81143,-0.674861 -0.83536,1.008307 c -0.45946,0.554568 -0.83537,1.132547 -0.83537,1.284399 1.719508,3.842102 2.463863,2.586279 -0.8149,0.827294 z"
         style="fill:#000000;stroke:#000000;stroke-width:0.16" />
      <path
         sodipodi:nodetypes="cccccscccscccccsscccsccc"
         inkscape:connector-curvature="0"
         id="path1044-19"
         d="m 49.387248,84.424364 c -1.41129,-1.70069 -1.39301,-1.998468 1.72073,1.36 1.00351,1.17578 0.237,0.569957 -1.72073,-1.36 z m 7.90586,-0.84 c 2.30191,-2.474363 3.06233,-3.204813 3.19656,-3.070584 0.14612,0.146122 -0.13333,0.440456 -2.74275,2.88883 l -2.24,2.101754 z m -2.18619,-2.343624 c -0.99359,-0.870491 -1.80099,-1.416376 -2.0949,-1.416376 -0.15779,0 -0.77355,0.412867 -1.36837,0.917482 l -1.08147,0.917481 0.76424,-0.938277 c 1.21019,-1.485788 1.25093,-1.865524 0.31896,-2.9731 l -0.45301,-0.538378 0.76953,0.587397 c 0.42324,0.323067 0.83133,0.587395 0.90686,0.587395 0.36939,0 1.0843,-0.395381 1.81746,-1.005139 l 0.81143,-0.674861 -0.83536,1.008307 c -0.45946,0.554568 -0.83537,1.132547 -0.83537,1.284399 0,0.327784 0.29226,0.773926 1.24945,1.907294 0.8122,0.961701 0.81807,1.02633 0.0306,0.336376 z"
         style="fill:#000000;stroke:#000000;stroke-width:0.16" />
      <path
         sodipodi:nodetypes="csccccscccscccccsscccsccc"
         inkscape:connector-curvature="0"
         id="path1044-96"
         d="m 58.148414,75.663199 c -2.1683,-2.137546 -3.6759,-3.8 -3.44602,-3.8 0.15306,0 4.28298,4.124522 5.16675,5.16 1.00351,1.175781 0.237,0.569957 -1.72073,-1.36 z m 7.90586,-0.84 c 2.30191,-2.474363 3.06233,-3.204813 3.19656,-3.070584 0.14612,0.146122 -0.13333,0.440456 -2.74275,2.88883 l -2.24,2.101754 z m -2.18619,-2.343624 c -0.99359,-0.870491 -1.80099,-1.416376 -2.0949,-1.416376 -0.15779,0 -0.77355,0.412867 -1.36837,0.917482 l -1.08147,0.917481 0.76424,-0.938277 c 1.21019,-1.485788 1.25093,-1.865524 0.31896,-2.9731 l -0.45301,-0.538378 0.76953,0.587397 c 0.42324,0.323067 0.83133,0.587395 0.90686,0.587395 0.36939,0 1.0843,-0.395381 1.81746,-1.005139 l 0.81143,-0.674861 -0.83536,1.008307 c -0.45946,0.554568 -0.83537,1.132547 -0.83537,1.284399 0,0.327784 0.29226,0.773926 1.24945,1.907294 0.8122,0.961701 0.81807,1.02633 0.0306,0.336376 z"
         style="fill:#000000;stroke:#000000;stroke-width:0.16" />
      <path
         sodipodi:nodetypes="csccccscccscccccsscccsccc"
         inkscape:connector-curvature="0"
         id="path1044-06"
         d="m 67.002783,66.80883 c -2.1683,-2.137546 -3.6759,-3.8 -3.44602,-3.8 0.15306,0 4.28298,4.124522 5.16675,5.16 1.00351,1.175781 0.237,0.569957 -1.72073,-1.36 z m 7.90586,-0.84 c 2.30191,-2.474363 3.06233,-3.204813 3.19656,-3.070584 0.14612,0.146122 -0.13333,0.440456 -2.74275,2.88883 l -2.24,2.101754 z m -2.18619,-2.343624 c -0.99359,-0.870491 -1.80099,-1.416376 -2.0949,-1.416376 -0.15779,0 -0.77355,0.412867 -1.36837,0.917482 l -1.08147,0.917481 0.76424,-0.938277 c 1.21019,-1.485788 1.25093,-1.865524 0.31896,-2.9731 l -0.45301,-0.538378 0.76953,0.587397 c 0.42324,0.323067 0.83133,0.587395 0.90686,0.587395 0.36939,0 1.0843,-0.395381 1.81746,-1.005139 l 0.81143,-0.674861 -0.83536,1.008307 c -0.45946,0.554568 -0.83537,1.132547 -0.83537,1.284399 0,0.327784 0.29226,0.773926 1.24945,1.907294 0.8122,0.961701 0.81807,1.02633 0.0306,0.336376 z"
         style="fill:#000000;stroke:#000000;stroke-width:0.16" />
      <path
         sodipodi:nodetypes="csccccscccscccccsscccsccc"
         inkscape:connector-curvature="0"
         id="path1044-49"
         d="m 75.857152,58.047665 c -2.1683,-2.137546 -3.6759,-3.8 -3.44602,-3.8 0.15306,0 4.28298,4.124522 5.16675,5.16 1.00351,1.175781 0.237,0.569957 -1.72073,-1.36 z m 7.905859,-0.84 c 2.30191,-2.474363 3.06233,-3.204813 3.19656,-3.070584 0.14612,0.146122 -0.13333,0.440456 -2.74275,2.88883 l -2.239999,2.101754 z m -2.186189,-2.343624 c -0.99359,-0.870491 -1.80099,-1.416376 -2.0949,-1.416376 -0.15779,0 -0.77355,0.412867 -1.36837,0.917482 l -1.08147,0.917481 0.76424,-0.938277 c 1.21019,-1.485788 1.25093,-1.865524 0.31896,-2.9731 l -0.45301,-0.538378 0.76953,0.587397 c 0.42324,0.323067 0.83133,0.587395 0.90686,0.587395 0.36939,0 1.0843,-0.395381 1.81746,-1.005139 l 0.81143,-0.674861 -0.83536,1.008307 c -0.45946,0.554568 -0.83537,1.132547 -0.83537,1.284399 0,0.327784 0.29226,0.773926 1.24945,1.907294 0.812199,0.961701 0.818069,1.02633 0.0306,0.336376 z"
         style="fill:#000000;stroke:#000000;stroke-width:0.16" />
      <path
         sodipodi:nodetypes="cscccccccccc"
         inkscape:connector-curvature="0"
         id="path1044-90"
         d="m 93.379481,58.047664 c -2.1683,-2.137546 -3.6759,-3.8 -3.44602,-3.8 0.15306,0 4.28298,4.124522 5.16675,5.16 1.00351,1.175781 0.237,0.569957 -1.72073,-1.36 z m 7.905859,-0.84 c 1.72727,-1.891224 1.85204,-1.383836 0.45381,-0.181754 l -2.239999,2.101754 z m -5.649459,-2.842518 -1.08147,0.917481 0.76424,-0.938277 c 3.004485,-3.331293 3.040592,-2.014309 0.31723,0.0208 z"
         style="fill:#000000;stroke:#000000;stroke-width:0.16" />
      <path
         sodipodi:nodetypes="cccc"
         inkscape:connector-curvature="0"
         id="path1044-89"
         d="m 48.471664,92.259339 c 2.30191,-2.474363 3.06233,-3.204813 3.19656,-3.070584 0.14612,0.146122 -0.13333,0.440456 -2.74275,2.88883 -1.196276,1.026509 -1.190901,1.071206 -0.45381,0.181754 z"
         style="fill:#000000;stroke:#000000;stroke-width:0.16" />
    </g>
  </g>
  <text
     id="text1690"
     y="106.09383"
     x="136"
     style="font-style:normal;font-variant:normal;font-weight:bold;font-stretch:normal;font-size:74.66666412px;line-height:1.25;font-family:'Liberation Mono';-inkscape-font-specification:'Liberation Mono, Bold';font-variant-ligatures:normal;font-variant-caps:normal;font-variant-numeric:normal;font-feature-settings:normal;text-align:start;letter-spacing:0px;word-spacing:0px;writing-mode:lr-tb;text-anchor:start;fill:#000000;fill-opacity:1;stroke:none"
     xml:space="preserve"><tspan
       y="106.09383"
       x="136"
       id="tspan1688"
       sodipodi:role="line">Akornsys R</tspan></text>
  <text
     id="text1694"
     y="157.58862"
     x="134.70117"
     style="font-style:italic;font-variant:normal;font-weight:normal;font-stretch:normal;font-size:46.66666794px;line-height:1.25;font-family:'Liberation Mono';-inkscape-font-specification:'Liberation Mono, Italic';font-variant-ligatures:normal;font-variant-caps:normal;font-variant-numeric:normal;font-feature-settings:normal;text-align:start;letter-spacing:0px;word-spacing:0px;writing-mode:lr-tb;text-anchor:start;fill:#000000;fill-opacity:1;stroke:none"
     xml:space="preserve"><tspan
       y="157.58862"
       x="134.70117"
       id="tspan1692"
       sodipodi:role="line">R</tspan></text>
  <text
     xml:space="preserve"
     style="font-style:italic;font-variant:normal;font-weight:normal;font-stretch:normal;font-size:46.66666794px;line-height:1.25;font-family:'Liberation Mono';-inkscape-font-specification:'Liberation Mono, Italic';font-variant-ligatures:normal;font-variant-caps:normal;font-variant-numeric:normal;font-feature-settings:normal;text-align:start;letter-spacing:0px;word-spacing:0px;writing-mode:lr-tb;text-anchor:start;fill:#000000;fill-opacity:1;stroke:none"
     x="171.02278"
     y="157.1329"
     id="text1770"><tspan
       sodipodi:role="line"
       id="tspan1768"
       x="171.02278"
       y="157.1329">&amp;</tspan></text>
  <text
     id="text1774"
     y="157.58862"
     x="204.70117"
     style="font-style:italic;font-variant:normal;font-weight:normal;font-stretch:normal;font-size:46.66666794px;line-height:1.25;font-family:'Liberation Mono';-inkscape-font-specification:'Liberation Mono, Italic';font-variant-ligatures:normal;font-variant-caps:normal;font-variant-numeric:normal;font-feature-settings:normal;text-align:start;letter-spacing:0px;word-spacing:0px;writing-mode:lr-tb;text-anchor:start;fill:#000000;fill-opacity:1;stroke:none"
     xml:space="preserve"><tspan
       y="157.58862"
       x="204.70117"
       id="tspan1772"
       sodipodi:role="line">D</tspan></text>
  <text
     xml:space="preserve"
     style="font-style:italic;font-variant:normal;font-weight:normal;font-stretch:normal;font-size:46.66666794px;line-height:1.25;font-family:'Liberation Mono';-inkscape-font-specification:'Liberation Mono, Italic';font-variant-ligatures:normal;font-variant-caps:normal;font-variant-numeric:normal;font-feature-settings:normal;text-align:start;letter-spacing:0px;word-spacing:0px;writing-mode:lr-tb;text-anchor:start;fill:#000000;fill-opacity:1;stroke:none"
     x="273.7897"
     y="157.58862"
     id="text1778"><tspan
       sodipodi:role="line"
       id="tspan1776"
       x="273.7897"
       y="157.58862">I</tspan></text>
  <text
     id="text1782"
     y="157.1329"
     x="329.44791"
     style="font-style:italic;font-variant:normal;font-weight:normal;font-stretch:normal;font-size:46.66666794px;line-height:1.25;font-family:'Liberation Mono';-inkscape-font-specification:'Liberation Mono, Italic';font-variant-ligatures:normal;font-variant-caps:normal;font-variant-numeric:normal;font-feature-settings:normal;text-align:start;letter-spacing:0px;word-spacing:0px;writing-mode:lr-tb;text-anchor:start;fill:#000000;fill-opacity:1;stroke:none"
     xml:space="preserve"><tspan
       y="157.1329"
       x="329.44791"
       id="tspan1780"
       sodipodi:role="line">on Open Source Electronics</tspan></text>
  <text
     id="text1790"
     y="157.1329"
     x="241.02278"
     style="font-style:italic;font-variant:normal;font-weight:normal;font-stretch:normal;font-size:46.66666794px;line-height:1.25;font-family:'Liberation Mono';-inkscape-font-specification:'Liberation Mono, Italic';font-variant-ligatures:normal;font-variant-caps:normal;font-variant-numeric:normal;font-feature-settings:normal;text-align:start;letter-spacing:0px;word-spacing:0px;writing-mode:lr-tb;text-anchor:start;fill:#000000;fill-opacity:1;stroke:none"
     xml:space="preserve"><tspan
       y="157.1329"
       x="241.02278"
       id="tspan1788"
       sodipodi:role="line">&amp;</tspan></text>
  <text
     id="text1798"
     y="105.25692"
     x="599.125"
     style="font-style:normal;font-variant:normal;font-weight:bold;font-stretch:normal;font-size:74.66666412px;line-height:1.25;font-family:'Liberation Mono';-inkscape-font-specification:'Liberation Mono, Bold';font-variant-ligatures:normal;font-variant-caps:normal;font-variant-numeric:normal;font-feature-settings:normal;text-align:start;letter-spacing:0px;word-spacing:0px;writing-mode:lr-tb;text-anchor:start;fill:#000000;fill-opacity:1;stroke:none"
     xml:space="preserve"><tspan
       y="105.25692"
       x="599.125"
       id="tspan1796"
       sodipodi:role="line">&amp;</tspan></text>
  <text
     xml:space="preserve"
     style="font-style:normal;font-variant:normal;font-weight:bold;font-stretch:normal;font-size:74.66666412px;line-height:1.25;font-family:'Liberation Mono';-inkscape-font-specification:'Liberation Mono, Bold';font-variant-ligatures:normal;font-variant-caps:normal;font-variant-numeric:normal;font-feature-settings:normal;text-align:start;letter-spacing:0px;word-spacing:0px;writing-mode:lr-tb;text-anchor:start;fill:#000000;fill-opacity:1;stroke:none"
     x="655.07812"
     y="105.94963"
     id="text1802"><tspan
       sodipodi:role="line"
       id="tspan1800"
       x="655.07812"
       y="105.94963">D</tspan></text>
  <text
     id="text1806"
     y="105.94963"
     x="769.27606"
     style="font-style:normal;font-variant:normal;font-weight:bold;font-stretch:normal;font-size:74.66666412px;line-height:1.25;font-family:'Liberation Mono';-inkscape-font-specification:'Liberation Mono, Bold';font-variant-ligatures:normal;font-variant-caps:normal;font-variant-numeric:normal;font-feature-settings:normal;text-align:start;letter-spacing:0px;word-spacing:0px;writing-mode:lr-tb;text-anchor:start;fill:#000000;fill-opacity:1;stroke:none"
     xml:space="preserve"><tspan
       y="105.94963"
       x="769.27606"
       id="tspan1804"
       sodipodi:role="line">I</tspan></text>
  <text
     xml:space="preserve"
     style="font-style:normal;font-variant:normal;font-weight:bold;font-stretch:normal;font-size:74.66666412px;line-height:1.25;font-family:'Liberation Mono';-inkscape-font-specification:'Liberation Mono, Bold';font-variant-ligatures:normal;font-variant-caps:normal;font-variant-numeric:normal;font-feature-settings:normal;text-align:start;letter-spacing:0px;word-spacing:0px;writing-mode:lr-tb;text-anchor:start;fill:#000000;fill-opacity:1;stroke:none"
     x="714.125"
     y="105.25692"
     id="text1814"><tspan
       sodipodi:role="line"
       id="tspan1812"
       x="714.125"
       y="105.25692">&amp;</tspan></text>
</svg>
