<?xml version="1.0" encoding="UTF-8" standalone="no"?>
<!-- Created with Inkscape (http://www.inkscape.org/) -->

<svg
   xmlns:dc="http://purl.org/dc/elements/1.1/"
   xmlns:cc="http://creativecommons.org/ns#"
   xmlns:rdf="http://www.w3.org/1999/02/22-rdf-syntax-ns#"
   xmlns:svg="http://www.w3.org/2000/svg"
   xmlns="http://www.w3.org/2000/svg"
   xmlns:sodipodi="http://sodipodi.sourceforge.net/DTD/sodipodi-0.dtd"
   xmlns:inkscape="http://www.inkscape.org/namespaces/inkscape"
   version="1.1"
   id="svg1414"
   width="512"
   height="512"
   viewBox="0 0 512.00001 511.99999"
   sodipodi:docname="akorn-icon.svg"
   inkscape:version="0.92.3 (2405546, 2018-03-11)">
  <metadata
     id="metadata1420">
    <rdf:RDF>
      <cc:Work
         rdf:about="">
        <dc:format>image/svg+xml</dc:format>
        <dc:type
           rdf:resource="http://purl.org/dc/dcmitype/StillImage" />
        <dc:title></dc:title>
      </cc:Work>
    </rdf:RDF>
  </metadata>
  <defs
     id="defs1418" />
  <sodipodi:namedview
     pagecolor="#ffffff"
     bordercolor="#666666"
     borderopacity="1"
     objecttolerance="10"
     gridtolerance="10"
     guidetolerance="10"
     inkscape:pageopacity="0"
     inkscape:pageshadow="2"
     inkscape:window-width="1366"
     inkscape:window-height="703"
     id="namedview1416"
     showgrid="false"
     fit-margin-top="0"
     fit-margin-left="0"
     fit-margin-right="0"
     fit-margin-bottom="0"
     inkscape:zoom="0.6705729"
     inkscape:cx="66.241871"
     inkscape:cy="176.35316"
     inkscape:window-x="0"
     inkscape:window-y="40"
     inkscape:window-maximized="1"
     inkscape:current-layer="svg1414" />
  <g
     id="g866"
     transform="matrix(2.8830676,0,0,2.8830676,85.2075,-964.13059)">
    <path
       sodipodi:nodetypes="ccccccccc"
       inkscape:connector-curvature="0"
       id="path1428"
       d="m 82.856977,503.08334 12.4158,8.24048 10.765833,-10.85104 -8.321693,-12.40947 5.078693,-12.77028 15.08262,-3.2157 0.0988,-15.15817 -15.5536,-3.16345 -2.948773,-6.53328"
       style="fill:none;stroke:#000000;stroke-width:1px;stroke-linecap:butt;stroke-linejoin:miter;stroke-opacity:1" />
    <path
       sodipodi:nodetypes="ccccccccc"
       inkscape:connector-curvature="0"
       id="path1428-2"
       d="m 35.62272,503.11582 -12.4158,8.24048 -10.76583,-10.85104 8.32169,-12.40947 -5.07869,-12.77028 -15.08262007,-3.2157 -0.0988,-15.15817 15.55360007,-3.16345 2.94877,-6.53328"
       style="fill:none;stroke:#000000;stroke-width:1px;stroke-linecap:butt;stroke-linejoin:miter;stroke-opacity:1" />
    <path
       sodipodi:nodetypes="ccccccccccccccccccccccccccccccccccccccccc"
       inkscape:connector-curvature="0"
       id="path1445"
       d="m 79.484617,337.3067 c -5.82787,4.81305 -11.23624,9.77117 -14.978518,15.32031 -5.341979,7.3593 -7.068035,13.61491 -8.515625,19.87891 -0.638965,1.40522 -2.014021,2.53397 -2.169922,2.54297 -6.193923,1.60298 -11.973832,3.11699 -16.578122,6.34375 -3.87642,2.91175 -7.94985,5.9329 -12.3125,13.70703 -2.47693,4.28439 -6.34794,12.10427 -5.05274,20.39258 0.31887,2.20645 1.77657,4.43578 3.41797,5.57617 2.99162,2.127 20.908612,5.93221 35.224611,5.63476 12.688544,-0.1076 23.723976,-2.56521 35.214846,-5.22461 1.6696,-0.90838 3.15268,-0.32796 4.82227,-4.40429 0.8262,-5.27233 -0.16473,-10.80087 -2.04688,-16.06446 -2.12396,-5.79428 -5.77777,-10.53699 -9.38086,-14.26757 -3.91945,-3.01567 -7.09171,-5.46296 -12.45117,-7.32032 -2.772803,-0.91965 -4.975403,-1.43832 -8.328128,-2.44922 -1.255459,-0.0206 -1.809878,-1.842 -2.107422,-3.17968 -0.103382,-2.37561 1.240631,-5.42016 2.726563,-8.5293 1.61021,-4.0385 4.658789,-7.82338 8.375007,-11.49023 2.94891,-2.04558 5.93911,-4.37476 9.61523,-5.33399 2.25651,-1.03007 4.10287,-1.24143 6.13867,-1.83008 1.52224,-0.41886 0.12492,-3.98936 -0.49609,-4.01562 -6.04007,-3.00729 -7.19554,-3.40134 -11.11719,-5.28711 z M 25.08422,425.1524 c 0.60483,14.30422 0.10626,29.32665 1.58594,43.50587 0.85806,6.11638 1.7348,12.10737 4.51953,17.42969 2.95136,6.14716 7.66815,9.532 12.396487,13.14062 1.751066,1.43411 1.219147,-0.39129 1.816406,-0.60547 1.553399,-3.63495 6.634102,-16.11114 8.1875,-19.74609 0.719573,-1.73556 -0.306275,-2.33898 -0.804687,-2.64453 -3.227255,-2.79684 -6.786087,-4.55446 -7.148438,-11.67578 -0.08741,-8.22788 5.103659,-13.63148 13.792969,-14.02735 6.324154,-0.17348 12.485117,4.44909 13.281247,13.6543 0.20886,3.5581 -2.504742,9.4577 -7.304684,11.96484 -1.697415,0.88661 -1.591208,0.95679 -0.652344,3.07032 3.07037,7.13102 4.419316,10.73964 8.238278,19.96484 0.22881,1.55009 1.979403,-0.0856 2.794933,-0.69922 3.45907,-2.70197 5.10112,-3.10605 10.5332,-10.5332 2.45411,-4.21854 4.13135,-10.85235 5.3125,-19.57227 1.5259,-12.90257 1.49812,-28.17428 1.69531,-43.0293 -10.10487,2.67217 -21.563109,4.14758 -33.687502,4.12565 C 49.242206,429.67629 35.25419,428.8204 25.08422,425.1524 Z"
       style="fill:none;stroke:#000000;stroke-width:4.91338587;stroke-linecap:butt;stroke-linejoin:miter;stroke-miterlimit:4;stroke-dasharray:none;stroke-opacity:1" />
    <g
       style="fill:#000000;stroke:#000000"
       transform="translate(-28.13453,325.68365)"
       id="g2277">
      <path
         style="fill:#000000;stroke:#000000;stroke-width:0.16"
         d="m 84.525113,84.517568 c -2.1683,-2.137546 -3.6759,-3.8 -3.44602,-3.8 0.15306,0 4.28298,4.124522 5.16675,5.16 1.00351,1.175781 0.237,0.569957 -1.72073,-1.36 z m 7.90586,-0.84 c 2.30191,-2.474363 3.06233,-3.204813 3.19656,-3.070584 0.14612,0.146122 -0.13333,0.440456 -2.74275,2.88883 l -2.24,2.101754 z m -2.18619,-2.343624 c -0.99359,-0.870491 -1.80099,-1.416376 -2.0949,-1.416376 -0.15779,0 -0.77355,0.412867 -1.36837,0.917482 l -1.08147,0.917481 0.76424,-0.938277 c 1.21019,-1.485788 1.25093,-1.865524 0.31896,-2.9731 l -0.45301,-0.538378 0.76953,0.587397 c 0.42324,0.323067 0.83133,0.587395 0.90686,0.587395 0.36939,0 1.0843,-0.395381 1.81746,-1.005139 l 0.81143,-0.674861 -0.83536,1.008307 c -0.45946,0.554568 -0.83537,1.132547 -0.83537,1.284399 0,0.327784 0.29226,0.773926 1.24945,1.907294 0.8122,0.961701 0.81807,1.02633 0.0306,0.336376 z"
         id="path1044-7"
         inkscape:connector-curvature="0"
         sodipodi:nodetypes="csccccscccscccccsscccsccc" />
      <path
         style="fill:#000000;stroke:#000000;stroke-width:0.16"
         d="m 93.379482,75.663199 c -2.1683,-2.137546 -3.6759,-3.8 -3.44602,-3.8 0.15306,0 4.28298,4.124522 5.16675,5.16 1.00351,1.175781 0.237,0.569957 -1.72073,-1.36 z m 7.905858,-0.84 c 2.30191,-2.474363 3.06233,-3.204813 3.19656,-3.070584 0.14612,0.146122 -0.13333,0.440456 -2.74275,2.88883 l -2.239998,2.101754 z m -2.186188,-2.343624 c -0.99359,-0.870491 -1.80099,-1.416376 -2.0949,-1.416376 -0.15779,0 -0.77355,0.412867 -1.36837,0.917482 l -1.08147,0.917481 0.76424,-0.938277 c 1.21019,-1.485788 1.25093,-1.865524 0.31896,-2.9731 l -0.45301,-0.538378 0.76953,0.587397 c 0.42324,0.323067 0.83133,0.587395 0.90686,0.587395 0.36939,0 1.0843,-0.395381 1.81746,-1.005139 l 0.81143,-0.674861 -0.83536,1.008307 c -0.45946,0.554568 -0.83537,1.132547 -0.83537,1.284399 0,0.327784 0.29226,0.773926 1.24945,1.907294 0.8122,0.961701 0.81807,1.02633 0.0306,0.336376 z"
         id="path1044-1"
         inkscape:connector-curvature="0"
         sodipodi:nodetypes="csccccscccscccccsscccsccc" />
      <path
         style="fill:#000000;stroke:#000000;stroke-width:0.16"
         d="m 75.763948,75.663199 c -2.1683,-2.137546 -3.6759,-3.8 -3.44602,-3.8 0.15306,0 4.28298,4.124522 5.16675,5.16 1.00351,1.17578 0.237,0.569957 -1.72073,-1.36 z m 7.90586,-0.84 c 2.30191,-2.474363 3.06233,-3.204813 3.19656,-3.070584 0.14612,0.146122 -0.13333,0.440456 -2.74275,2.88883 l -2.24,2.101754 z m -2.18619,-2.343624 c -0.99359,-0.870491 -1.80099,-1.416376 -2.0949,-1.416376 -0.15779,0 -0.77355,0.412867 -1.36837,0.917482 l -1.08147,0.917481 0.76424,-0.938277 c 1.21019,-1.485788 1.25093,-1.865524 0.31896,-2.9731 l -0.45301,-0.538379 0.76953,0.587398 c 0.42324,0.323067 0.83133,0.587395 0.90686,0.587395 0.36939,0 1.0843,-0.395381 1.81746,-1.00514 l 0.81143,-0.674861 -0.83536,1.008308 c -0.45946,0.554568 -0.83537,1.132547 -0.83537,1.284399 0,0.327784 0.29226,0.773926 1.24945,1.907294 0.8122,0.961701 0.81807,1.02633 0.0306,0.336376 z"
         id="path1044-6"
         inkscape:connector-curvature="0"
         sodipodi:nodetypes="csccccscccscccccsscccsccc" />
      <path
         style="fill:#000000;stroke:#000000;stroke-width:0.16"
         d="m 84.525113,66.902034 c -2.1683,-2.137546 -3.6759,-3.8 -3.44602,-3.8 0.15306,0 4.28298,4.124522 5.16675,5.16 1.00351,1.175781 0.237,0.569957 -1.72073,-1.36 z m 7.905859,-0.84 c 2.30191,-2.474363 3.06233,-3.204813 3.19656,-3.070584 0.14612,0.146122 -0.13333,0.440456 -2.74275,2.88883 l -2.239999,2.101754 z M 90.244783,63.71841 c -0.99359,-0.870491 -1.80099,-1.416376 -2.0949,-1.416376 -0.15779,0 -0.77355,0.412867 -1.36837,0.917482 l -1.08147,0.917481 0.76424,-0.938277 c 1.21019,-1.485788 1.25093,-1.865524 0.31896,-2.9731 l -0.45301,-0.538378 0.76953,0.587397 c 0.42324,0.323067 0.83133,0.587395 0.90686,0.587395 0.36939,0 1.0843,-0.395381 1.81746,-1.005139 l 0.81143,-0.674861 -0.83536,1.008307 c -0.45946,0.554568 -0.83537,1.132547 -0.83537,1.284399 0,0.327784 0.29226,0.773926 1.24945,1.907294 0.812199,0.961701 0.818069,1.02633 0.0306,0.336376 z"
         id="path1044-9"
         inkscape:connector-curvature="0"
         sodipodi:nodetypes="csccccscccscccccsscccsccc" />
      <path
         style="fill:#000000;stroke:#000000;stroke-width:0.16"
         d="m 66.909579,84.424364 c -2.1683,-2.137546 -3.6759,-3.8 -3.44602,-3.8 0.15306,0 4.28298,4.124522 5.16675,5.16 1.00351,1.175781 0.237,0.569957 -1.72073,-1.36 z m 7.905859,-0.84 c 2.30191,-2.474363 3.06233,-3.204813 3.19656,-3.070584 0.14612,0.146122 -0.13333,0.440456 -2.74275,2.88883 l -2.239999,2.101754 z M 72.629249,81.24074 c -0.99359,-0.870491 -1.80099,-1.416376 -2.0949,-1.416376 -0.15779,0 -0.77355,0.412867 -1.36837,0.917482 l -1.08147,0.917481 0.76424,-0.938277 c 1.21019,-1.485788 1.25093,-1.865524 0.31896,-2.9731 l -0.45301,-0.538378 0.76953,0.587397 c 0.42324,0.323067 0.83133,0.587395 0.90686,0.587395 0.36939,0 1.0843,-0.395381 1.81746,-1.005139 l 0.81143,-0.674861 -0.83536,1.008307 c -0.45946,0.554568 -0.83537,1.132547 -0.83537,1.284399 0,0.327784 0.29226,0.773926 1.24945,1.907294 0.812199,0.961701 0.818069,1.02633 0.0306,0.336376 z"
         id="path1044-8"
         inkscape:connector-curvature="0"
         sodipodi:nodetypes="csccccscccscccccsscccsccc" />
      <path
         style="fill:#000000;stroke:#000000;stroke-width:0.16"
         d="m 58.241618,93.185529 c -2.1683,-2.137546 -3.6759,-3.8 -3.44602,-3.8 0.15306,0 4.28298,4.124522 5.16675,5.16 1.00351,1.175781 0.237,0.569957 -1.72073,-1.36 z m 7.90586,-0.84 c 2.30191,-2.474363 3.06233,-3.204813 3.19656,-3.070584 0.14612,0.146122 -0.13333,0.440456 -2.74275,2.88883 l -2.24,2.101754 z m -2.18619,-2.343624 c -0.99359,-0.870491 -1.80099,-1.416376 -2.0949,-1.416376 -0.15779,0 -0.77355,0.412867 -1.36837,0.917482 l -1.08147,0.917481 0.76424,-0.938277 c 1.21019,-1.485788 1.25093,-1.865524 0.31896,-2.9731 l -0.45301,-0.538378 0.76953,0.587397 c 0.42324,0.323067 0.83133,0.587395 0.90686,0.587395 0.36939,0 1.0843,-0.395381 1.81746,-1.005139 l 0.81143,-0.674861 -0.83536,1.008307 c -0.45946,0.554568 -0.83537,1.132547 -0.83537,1.284399 0,0.327784 0.29226,0.773926 1.24945,1.907294 0.8122,0.961701 0.81807,1.02633 0.0306,0.336376 z"
         id="path1044-13"
         inkscape:connector-curvature="0"
         sodipodi:nodetypes="csccccscccscccccsscccsccc" />
      <path
         style="fill:#000000;stroke:#000000;stroke-width:0.16"
         d="m 75.763948,93.278733 c -2.1683,-2.137546 -3.6759,-3.8 -3.44602,-3.8 0.15306,0 4.28298,4.124522 5.16675,5.16 1.00351,1.175781 0.237,0.569957 -1.72073,-1.36 z m 7.90586,-0.84 c 2.30191,-2.474363 3.06233,-3.204813 3.19656,-3.070584 0.14612,0.146122 -0.13333,0.440456 -2.74275,2.88883 l -2.24,2.101754 z m -2.18619,-2.343624 c -0.99359,-0.870491 -1.80099,-1.416376 -2.0949,-1.416376 -0.15779,0 -0.77355,0.412867 -1.36837,0.917482 l -1.08147,0.917481 0.76424,-0.938277 c 1.21019,-1.485788 1.25093,-1.865524 0.31896,-2.9731 l -0.45301,-0.538378 0.76953,0.587397 c 0.42324,0.323067 0.83133,0.587395 0.90686,0.587395 0.36939,0 1.0843,-0.395381 1.81746,-1.005139 l 0.81143,-0.674861 -0.83536,1.008307 c -0.45946,0.554568 -0.83537,1.132547 -0.83537,1.284399 0,0.327784 0.29226,0.773926 1.24945,1.907294 0.8122,0.961701 0.81807,1.02633 0.0306,0.336376 z"
         id="path1044-3"
         inkscape:connector-curvature="0"
         sodipodi:nodetypes="csccccscccscccccsscccsccc" />
      <path
         style="fill:#000000;stroke:#000000;stroke-width:0.16"
         d="m 93.286278,93.278733 c -2.1683,-2.137546 -3.6759,-3.8 -3.44602,-3.8 0.15306,0 4.28298,4.124522 5.16675,5.16 1.00351,1.175781 0.237,0.569957 -1.72073,-1.36 z m 7.905862,-0.84 c 2.30191,-2.474363 3.06233,-3.204813 3.19656,-3.070584 0.14612,0.146122 -0.13333,0.440456 -2.74275,2.88883 l -2.240002,2.101754 z m -2.186192,-2.343624 c -0.99359,-0.870491 -1.80099,-1.416376 -2.0949,-1.416376 -0.15779,0 -0.77355,0.412867 -1.36837,0.917482 l -1.08147,0.917481 0.76424,-0.938277 c 1.21019,-1.485788 1.25093,-1.865524 0.31896,-2.9731 l -0.45301,-0.538378 0.76953,0.587397 c 0.42324,0.323067 0.83133,0.587395 0.90686,0.587395 0.36939,0 1.0843,-0.395381 1.81746,-1.005139 l 0.81143,-0.674861 -0.83536,1.008307 c -0.45946,0.554568 -0.83537,1.132547 -0.83537,1.284399 0,0.327784 0.29226,0.773926 1.24945,1.907294 0.812199,0.961701 0.818069,1.02633 0.0306,0.336376 z"
         id="path1044-37"
         inkscape:connector-curvature="0"
         sodipodi:nodetypes="csccccscccscccccsscccsccc" />
      <path
         style="fill:#000000;stroke:#000000;stroke-width:0.16"
         d="m 102.14065,84.424364 c -2.168303,-2.137546 -3.675903,-3.8 -3.446023,-3.8 0.15306,0 4.282983,4.124522 5.166753,5.16 1.00351,1.175781 0.237,0.569957 -1.72073,-1.36 z m 7.90586,-0.84 c 2.30191,-2.474363 3.06233,-3.204813 3.19656,-3.070584 0.14612,0.146122 -0.13333,0.440456 -2.74275,2.88883 l -2.24,2.101754 z m -2.18619,-2.343624 c -0.99359,-0.870491 -1.80099,-1.416376 -2.0949,-1.416376 -0.15779,0 -0.77355,0.412867 -1.36837,0.917482 l -1.08147,0.917481 0.76424,-0.938277 c 1.21019,-1.485788 1.25093,-1.865524 0.31896,-2.9731 l -0.45301,-0.538378 0.76953,0.587397 c 0.42324,0.323067 0.83133,0.587395 0.90686,0.587395 0.36939,0 1.0843,-0.395381 1.81746,-1.005139 l 0.81143,-0.674861 -0.83536,1.008307 c -0.45946,0.554568 -0.83537,1.132547 -0.83537,1.284399 0,0.327784 0.29226,0.773926 1.24945,1.907294 0.8122,0.961701 0.81807,1.02633 0.0306,0.336376 z"
         id="path1044-98"
         inkscape:connector-curvature="0"
         sodipodi:nodetypes="csccccscccscccccsscccsccc" />
      <path
         style="fill:#000000;stroke:#000000;stroke-width:0.16"
         d="m 110.95641,75.657545 c -2.1683,-2.137546 -3.6759,-3.8 -3.44602,-3.8 0.15306,0 4.28298,4.124522 5.16675,5.16 1.00351,1.175781 0.237,0.569957 -1.72073,-1.36 z m 7.90586,-0.84 c 2.30191,-2.474363 3.06233,-3.204813 3.19656,-3.070584 0.14612,0.146122 -0.13333,0.440456 -2.74275,2.88883 l -2.24,2.101754 z m -2.18619,-2.343624 c -0.99359,-0.870491 -1.80099,-1.416376 -2.0949,-1.416376 -0.15779,0 -0.77355,0.412867 -1.36837,0.917482 l -1.08147,0.917481 0.76424,-0.938277 c 1.21019,-1.485788 1.25093,-1.865524 0.31896,-2.9731 l -0.45301,-0.538378 0.76953,0.587397 c 0.42324,0.323067 0.83133,0.587395 0.90686,0.587395 0.36939,0 1.0843,-0.395381 1.81746,-1.005139 l 0.81143,-0.674861 -0.83536,1.008307 c -0.45946,0.554568 -0.83537,1.132547 -0.83537,1.284399 0,0.327784 0.29226,0.773926 1.24945,1.907294 0.8122,0.961701 0.81807,1.02633 0.0306,0.336376 z"
         id="path1044-67"
         inkscape:connector-curvature="0"
         sodipodi:nodetypes="csccccscccscccccsscccsccc" />
      <path
         style="fill:#000000;stroke:#000000;stroke-width:0.16"
         d="m 102.11335,66.863428 c -2.168302,-2.137546 -3.675902,-3.8 -3.446022,-3.8 0.15306,0 4.282982,4.124522 5.166752,5.16 1.00351,1.175781 0.237,0.569957 -1.72073,-1.36 z m 7.90586,-0.84 c 2.30191,-2.474363 3.06233,-3.204813 3.19656,-3.070584 0.14612,0.146122 -0.13333,0.440456 -2.74275,2.88883 l -2.24,2.101754 z m -2.18619,-2.343624 c -0.99359,-0.870491 -1.80099,-1.416376 -2.0949,-1.416376 -0.15779,0 -0.77355,0.412867 -1.36837,0.917482 l -1.08147,0.917481 0.76424,-0.938277 c 1.21019,-1.485788 1.25093,-1.865524 0.31896,-2.9731 l -0.45301,-0.538378 0.76953,0.587397 c 0.42324,0.323067 0.83133,0.587395 0.90686,0.587395 0.36939,0 1.0843,-0.395381 1.81746,-1.005139 l 0.81143,-0.674861 -0.83536,1.008307 c -0.45946,0.554568 -0.83537,1.132547 -0.83537,1.284399 0,0.327784 0.29226,0.773926 1.24945,1.907294 0.8122,0.961701 0.81807,1.02633 0.0306,0.336376 z"
         id="path1044-0"
         inkscape:connector-curvature="0"
         sodipodi:nodetypes="csccccscccscccccsscccsccc" />
      <path
         style="fill:#000000;stroke:#000000;stroke-width:0.16"
         d="m 119.66298,84.424364 c -2.1683,-2.137546 -3.6759,-3.8 -3.44602,-3.8 0.15306,0 4.28298,4.124522 5.16675,5.16 1.00351,1.175781 0.237,0.569957 -1.72073,-1.36 z m 3.62477,-4.6 c -0.15779,0 -0.77355,0.412867 -1.36837,0.917482 l -1.08147,0.917481 0.76424,-0.938277 c 1.21019,-1.485788 1.25093,-1.865524 0.31896,-2.9731 l -0.45301,-0.538378 0.76953,0.587397 c 0.42324,0.323067 0.83133,0.587395 0.90686,0.587395 0.35682,0.377635 0.67992,1.042537 0.14326,1.44 z"
         id="path1044-4"
         inkscape:connector-curvature="0"
         sodipodi:nodetypes="csccccccccscc" />
      <path
         style="fill:#000000;stroke:#000000;stroke-width:0.16"
         d="m 110.90181,93.278733 c -2.1683,-2.137546 -3.6759,-3.8 -3.44602,-3.8 0.15306,0 4.28298,4.124522 5.16675,5.16 1.00351,1.17578 0.237,0.569957 -1.72073,-1.36 z m 7.90586,-0.84 c 2.30191,-2.474363 3.06233,-3.204813 3.19656,-3.070584 0.14612,0.146122 -0.13333,0.440456 -2.74275,2.88883 l -2.24,2.101754 z m -2.18619,-2.343624 c -0.99359,-0.870491 -1.80099,-1.416376 -2.0949,-1.416376 -0.15779,0 -0.77355,0.412867 -1.36837,0.917482 l -1.08147,0.917481 0.76424,-0.938277 c 1.21019,-1.485788 1.25093,-1.865524 0.31896,-2.9731 l -0.45301,-0.538378 0.76953,0.587397 c 0.42324,0.323067 0.83133,0.587395 0.90686,0.587395 0.36939,0 1.0843,-0.395381 1.81746,-1.005139 l 0.81143,-0.674861 -0.83536,1.008307 c -0.45946,0.554568 -0.83537,1.132547 -0.83537,1.284399 0,0.327784 0.29226,0.773926 1.24945,1.907294 0.8122,0.961701 0.81807,1.02633 0.0306,0.336376 z"
         id="path1044-84"
         inkscape:connector-curvature="0"
         sodipodi:nodetypes="csccccscccscccccsscccsccc" />
      <path
         style="fill:#000000;stroke:#000000;stroke-width:0.16"
         d="m 104.30558,95.456687 -0.45301,-0.538378 0.76953,0.587397 c 0.42324,0.323067 0.83133,0.587395 0.90686,0.587395 0.36939,0 1.0843,-0.395381 1.81746,-1.005139 l 0.81143,-0.674861 -0.83536,1.008307 c -0.45946,0.554568 -0.83537,1.132547 -0.83537,1.284399 -2.5907,0.560048 0.21979,1.130869 -2.18154,-1.24912 z"
         id="path1044-81"
         inkscape:connector-curvature="0"
         sodipodi:nodetypes="ccssccccc" />
      <path
         style="fill:#000000;stroke:#000000;stroke-width:0.16"
         d="m 90.244783,98.949478 c -0.99359,-0.870491 -1.80099,-1.416376 -2.0949,-1.416376 -0.15779,0 -0.77355,0.412867 -1.36837,0.917482 l -1.08147,0.917481 0.76424,-0.938277 c 1.21019,-1.485788 1.25093,-1.865524 0.31896,-2.9731 l -0.45301,-0.538378 0.76953,0.587397 c 0.42324,0.323067 0.83133,0.587395 0.90686,0.587395 0.36939,0 1.0843,-0.395381 1.81746,-1.005139 l 0.81143,-0.674861 -0.83536,1.008307 c -0.45946,0.554568 -0.83537,1.132547 -0.83537,1.284399 0,0.327784 0.29226,0.773926 1.24945,1.907294 0.8122,0.961701 0.81807,1.02633 0.0306,0.336376 z"
         id="path1044-68"
         inkscape:connector-curvature="0"
         sodipodi:nodetypes="cscccccsscccsccc" />
      <path
         style="fill:#000000;stroke:#000000;stroke-width:0.16"
         d="m 70.534349,97.533102 c -4.745345,3.121728 0.482173,0.15997 -1.36664,-2.076414 l -0.45301,-0.538378 0.76953,0.587397 c 0.42324,0.323067 0.83133,0.587395 0.90686,0.587395 0.36939,0 1.0843,-0.395381 1.81746,-1.005139 l 0.81143,-0.674861 -0.83536,1.008307 c -0.45946,0.554568 -0.83537,1.132547 -0.83537,1.284399 1.719508,3.842102 2.463863,2.586279 -0.8149,0.827294 z"
         id="path1044-52"
         inkscape:connector-curvature="0"
         sodipodi:nodetypes="cccssccccc" />
      <path
         style="fill:#000000;stroke:#000000;stroke-width:0.16"
         d="m 49.387248,84.424364 c -1.41129,-1.70069 -1.39301,-1.998468 1.72073,1.36 1.00351,1.17578 0.237,0.569957 -1.72073,-1.36 z m 7.90586,-0.84 c 2.30191,-2.474363 3.06233,-3.204813 3.19656,-3.070584 0.14612,0.146122 -0.13333,0.440456 -2.74275,2.88883 l -2.24,2.101754 z m -2.18619,-2.343624 c -0.99359,-0.870491 -1.80099,-1.416376 -2.0949,-1.416376 -0.15779,0 -0.77355,0.412867 -1.36837,0.917482 l -1.08147,0.917481 0.76424,-0.938277 c 1.21019,-1.485788 1.25093,-1.865524 0.31896,-2.9731 l -0.45301,-0.538378 0.76953,0.587397 c 0.42324,0.323067 0.83133,0.587395 0.90686,0.587395 0.36939,0 1.0843,-0.395381 1.81746,-1.005139 l 0.81143,-0.674861 -0.83536,1.008307 c -0.45946,0.554568 -0.83537,1.132547 -0.83537,1.284399 0,0.327784 0.29226,0.773926 1.24945,1.907294 0.8122,0.961701 0.81807,1.02633 0.0306,0.336376 z"
         id="path1044-19"
         inkscape:connector-curvature="0"
         sodipodi:nodetypes="cccccscccscccccsscccsccc" />
      <path
         style="fill:#000000;stroke:#000000;stroke-width:0.16"
         d="m 58.148414,75.663199 c -2.1683,-2.137546 -3.6759,-3.8 -3.44602,-3.8 0.15306,0 4.28298,4.124522 5.16675,5.16 1.00351,1.175781 0.237,0.569957 -1.72073,-1.36 z m 7.90586,-0.84 c 2.30191,-2.474363 3.06233,-3.204813 3.19656,-3.070584 0.14612,0.146122 -0.13333,0.440456 -2.74275,2.88883 l -2.24,2.101754 z m -2.18619,-2.343624 c -0.99359,-0.870491 -1.80099,-1.416376 -2.0949,-1.416376 -0.15779,0 -0.77355,0.412867 -1.36837,0.917482 l -1.08147,0.917481 0.76424,-0.938277 c 1.21019,-1.485788 1.25093,-1.865524 0.31896,-2.9731 l -0.45301,-0.538378 0.76953,0.587397 c 0.42324,0.323067 0.83133,0.587395 0.90686,0.587395 0.36939,0 1.0843,-0.395381 1.81746,-1.005139 l 0.81143,-0.674861 -0.83536,1.008307 c -0.45946,0.554568 -0.83537,1.132547 -0.83537,1.284399 0,0.327784 0.29226,0.773926 1.24945,1.907294 0.8122,0.961701 0.81807,1.02633 0.0306,0.336376 z"
         id="path1044-96"
         inkscape:connector-curvature="0"
         sodipodi:nodetypes="csccccscccscccccsscccsccc" />
      <path
         style="fill:#000000;stroke:#000000;stroke-width:0.16"
         d="m 67.002783,66.80883 c -2.1683,-2.137546 -3.6759,-3.8 -3.44602,-3.8 0.15306,0 4.28298,4.124522 5.16675,5.16 1.00351,1.175781 0.237,0.569957 -1.72073,-1.36 z m 7.90586,-0.84 c 2.30191,-2.474363 3.06233,-3.204813 3.19656,-3.070584 0.14612,0.146122 -0.13333,0.440456 -2.74275,2.88883 l -2.24,2.101754 z m -2.18619,-2.343624 c -0.99359,-0.870491 -1.80099,-1.416376 -2.0949,-1.416376 -0.15779,0 -0.77355,0.412867 -1.36837,0.917482 l -1.08147,0.917481 0.76424,-0.938277 c 1.21019,-1.485788 1.25093,-1.865524 0.31896,-2.9731 l -0.45301,-0.538378 0.76953,0.587397 c 0.42324,0.323067 0.83133,0.587395 0.90686,0.587395 0.36939,0 1.0843,-0.395381 1.81746,-1.005139 l 0.81143,-0.674861 -0.83536,1.008307 c -0.45946,0.554568 -0.83537,1.132547 -0.83537,1.284399 0,0.327784 0.29226,0.773926 1.24945,1.907294 0.8122,0.961701 0.81807,1.02633 0.0306,0.336376 z"
         id="path1044-06"
         inkscape:connector-curvature="0"
         sodipodi:nodetypes="csccccscccscccccsscccsccc" />
      <path
         style="fill:#000000;stroke:#000000;stroke-width:0.16"
         d="m 75.857152,58.047665 c -2.1683,-2.137546 -3.6759,-3.8 -3.44602,-3.8 0.15306,0 4.28298,4.124522 5.16675,5.16 1.00351,1.175781 0.237,0.569957 -1.72073,-1.36 z m 7.905859,-0.84 c 2.30191,-2.474363 3.06233,-3.204813 3.19656,-3.070584 0.14612,0.146122 -0.13333,0.440456 -2.74275,2.88883 l -2.239999,2.101754 z m -2.186189,-2.343624 c -0.99359,-0.870491 -1.80099,-1.416376 -2.0949,-1.416376 -0.15779,0 -0.77355,0.412867 -1.36837,0.917482 l -1.08147,0.917481 0.76424,-0.938277 c 1.21019,-1.485788 1.25093,-1.865524 0.31896,-2.9731 l -0.45301,-0.538378 0.76953,0.587397 c 0.42324,0.323067 0.83133,0.587395 0.90686,0.587395 0.36939,0 1.0843,-0.395381 1.81746,-1.005139 l 0.81143,-0.674861 -0.83536,1.008307 c -0.45946,0.554568 -0.83537,1.132547 -0.83537,1.284399 0,0.327784 0.29226,0.773926 1.24945,1.907294 0.812199,0.961701 0.818069,1.02633 0.0306,0.336376 z"
         id="path1044-49"
         inkscape:connector-curvature="0"
         sodipodi:nodetypes="csccccscccscccccsscccsccc" />
      <path
         style="fill:#000000;stroke:#000000;stroke-width:0.16"
         d="m 93.379481,58.047664 c -2.1683,-2.137546 -3.6759,-3.8 -3.44602,-3.8 0.15306,0 4.28298,4.124522 5.16675,5.16 1.00351,1.175781 0.237,0.569957 -1.72073,-1.36 z m 7.905859,-0.84 c 1.72727,-1.891224 1.85204,-1.383836 0.45381,-0.181754 l -2.239999,2.101754 z m -5.649459,-2.842518 -1.08147,0.917481 0.76424,-0.938277 c 3.004485,-3.331293 3.040592,-2.014309 0.31723,0.0208 z"
         id="path1044-90"
         inkscape:connector-curvature="0"
         sodipodi:nodetypes="cscccccccccc" />
      <path
         style="fill:#000000;stroke:#000000;stroke-width:0.16"
         d="m 48.471664,92.259339 c 2.30191,-2.474363 3.06233,-3.204813 3.19656,-3.070584 0.14612,0.146122 -0.13333,0.440456 -2.74275,2.88883 -1.196276,1.026509 -1.190901,1.071206 -0.45381,0.181754 z"
         id="path1044-89"
         inkscape:connector-curvature="0"
         sodipodi:nodetypes="cccc" />
    </g>
  </g>
</svg>
