<?xml version="1.0" encoding="UTF-8" standalone="no"?>
<!-- Created with Inkscape (http://www.inkscape.org/) -->

<svg
   xmlns:dc="http://purl.org/dc/elements/1.1/"
   xmlns:cc="http://creativecommons.org/ns#"
   xmlns:rdf="http://www.w3.org/1999/02/22-rdf-syntax-ns#"
   xmlns:svg="http://www.w3.org/2000/svg"
   xmlns="http://www.w3.org/2000/svg"
   xmlns:sodipodi="http://sodipodi.sourceforge.net/DTD/sodipodi-0.dtd"
   xmlns:inkscape="http://www.inkscape.org/namespaces/inkscape"
   version="1.1"
   id="svg1414"
   width="512"
   height="512"
   viewBox="0 0 512.00001 511.99999"
   sodipodi:docname="akorn-icon-simple-black.svg"
   inkscape:version="0.92.3 (2405546, 2018-03-11)">
  <metadata
     id="metadata1420">
    <rdf:RDF>
      <cc:Work
         rdf:about="">
        <dc:format>image/svg+xml</dc:format>
        <dc:type
           rdf:resource="http://purl.org/dc/dcmitype/StillImage" />
        <dc:title />
      </cc:Work>
    </rdf:RDF>
  </metadata>
  <defs
     id="defs1418" />
  <sodipodi:namedview
     pagecolor="#ffffff"
     bordercolor="#666666"
     borderopacity="1"
     objecttolerance="10"
     gridtolerance="10"
     guidetolerance="10"
     inkscape:pageopacity="0"
     inkscape:pageshadow="2"
     inkscape:window-width="1366"
     inkscape:window-height="703"
     id="namedview1416"
     showgrid="false"
     fit-margin-top="0"
     fit-margin-left="0"
     fit-margin-right="0"
     fit-margin-bottom="0"
     inkscape:zoom="0.67057291"
     inkscape:cx="163.40024"
     inkscape:cy="281.45147"
     inkscape:window-x="0"
     inkscape:window-y="40"
     inkscape:window-maximized="1"
     inkscape:current-layer="svg1414" />
  <g
     id="g817"
     transform="matrix(2.880474,0,0,2.880474,85.361855,-966.51105)">
    <path
       sodipodi:nodetypes="ccccccccc"
       inkscape:connector-curvature="0"
       id="path1428"
       d="m 82.856977,503.08334 12.4158,8.24048 10.765833,-10.85104 -8.321693,-12.40947 5.078693,-12.77028 15.08262,-3.2157 0.0988,-15.15817 -15.5536,-3.16345 -2.948773,-6.53328"
       style="fill:none;stroke:#000000;stroke-width:3;stroke-linecap:butt;stroke-linejoin:miter;stroke-miterlimit:4;stroke-dasharray:none;stroke-opacity:1" />
    <path
       sodipodi:nodetypes="ccccccccc"
       inkscape:connector-curvature="0"
       id="path1428-2"
       d="m 35.62272,503.11582 -12.4158,8.24048 -10.76583,-10.85104 8.32169,-12.40947 -5.07869,-12.77028 -15.08262007,-3.2157 -0.0988,-15.15817 15.55360007,-3.16345 2.94877,-6.53328"
       style="fill:none;stroke:#000000;stroke-width:3;stroke-linecap:butt;stroke-linejoin:miter;stroke-miterlimit:4;stroke-dasharray:none;stroke-opacity:1" />
    <path
       sodipodi:nodetypes="ccccccccccccccccccccccccccccccccccccccccc"
       inkscape:connector-curvature="0"
       id="path1445"
       d="m 79.484617,337.3067 c -5.82787,4.81305 -11.23624,9.77117 -14.978518,15.32031 -5.341979,7.3593 -7.068035,13.61491 -8.515625,19.87891 -0.638965,1.40522 -2.014021,2.53397 -2.169922,2.54297 -6.193923,1.60298 -11.973832,3.11699 -16.578122,6.34375 -3.87642,2.91175 -7.94985,5.9329 -12.3125,13.70703 -2.47693,4.28439 -6.34794,12.10427 -5.05274,20.39258 0.31887,2.20645 1.77657,4.43578 3.41797,5.57617 2.99162,2.127 21.413238,5.41628 35.729237,5.11883 12.688544,-0.1076 23.21935,-2.04928 34.71022,-4.70868 1.6696,-0.90838 3.15268,-0.32796 4.82227,-4.40429 0.8262,-5.27233 -0.16473,-10.80087 -2.04688,-16.06446 -2.12396,-5.79428 -5.77777,-10.53699 -9.38086,-14.26757 -3.91945,-3.01567 -7.09171,-5.46296 -12.45117,-7.32032 -2.772803,-0.91965 -4.975403,-1.43832 -8.328128,-2.44922 -1.255459,-0.0206 -1.809878,-1.842 -2.107422,-3.17968 -0.103382,-2.37561 1.240631,-5.42016 2.726563,-8.5293 1.61021,-4.0385 4.658789,-7.82338 8.375007,-11.49023 2.94891,-2.04558 5.93911,-4.37476 9.61523,-5.33399 2.25651,-1.03007 4.10287,-1.24143 6.13867,-1.83008 1.52224,-0.41886 0.12492,-3.98936 -0.49609,-4.01562 -6.04007,-3.00729 -7.19554,-3.40134 -11.11719,-5.28711 z m -54.586805,88.31172 c 0.60483,14.30422 0.292668,28.86063 1.772348,43.03985 0.85806,6.11638 1.7348,12.10737 4.51953,17.42969 2.95136,6.14716 7.66815,9.532 12.396487,13.14062 1.751066,1.43411 1.219147,-0.39129 1.816406,-0.60547 1.553399,-3.63495 6.634102,-16.11114 8.1875,-19.74609 0.719573,-1.73556 -0.306275,-2.33898 -0.804687,-2.64453 -3.227255,-2.79684 -6.786087,-4.55446 -7.148438,-11.67578 -0.08741,-8.22788 5.103659,-13.63148 13.792969,-14.02735 6.324154,-0.17348 12.485117,4.44909 13.281247,13.6543 0.20886,3.5581 -2.504742,9.4577 -7.304684,11.96484 -1.697415,0.88661 -1.591208,0.95679 -0.652344,3.07032 3.07037,7.13102 4.419316,10.73964 8.238278,19.96484 0.22881,1.55009 1.979403,-0.0856 2.794933,-0.69922 3.45907,-2.70197 5.10112,-3.10605 10.5332,-10.5332 2.45411,-4.21854 4.13135,-10.85235 5.3125,-19.57227 1.5259,-12.90257 1.49812,-28.17428 1.69531,-43.0293 -10.10487,2.67217 -21.935925,4.5204 -34.060318,4.49847 -10.398659,0.20097 -24.107063,-1.02774 -34.370237,-4.22972 z"
       style="fill:#000000;stroke:#000000;stroke-width:3;stroke-linecap:butt;stroke-linejoin:miter;stroke-miterlimit:4;stroke-dasharray:none;stroke-opacity:1" />
  </g>
</svg>
