<?xml version="1.0" encoding="UTF-8" standalone="no"?>
<!-- Created with Inkscape (http://www.inkscape.org/) -->

<svg
   xmlns:dc="http://purl.org/dc/elements/1.1/"
   xmlns:cc="http://creativecommons.org/ns#"
   xmlns:rdf="http://www.w3.org/1999/02/22-rdf-syntax-ns#"
   xmlns:svg="http://www.w3.org/2000/svg"
   xmlns="http://www.w3.org/2000/svg"
   xmlns:sodipodi="http://sodipodi.sourceforge.net/DTD/sodipodi-0.dtd"
   xmlns:inkscape="http://www.inkscape.org/namespaces/inkscape"
   version="1.1"
   id="svg1414"
   width="512"
   height="512"
   viewBox="0 0 512.00001 511.99999"
   sodipodi:docname="akorn-icon-white.svg"
   inkscape:version="0.92.3 (2405546, 2018-03-11)">
  <metadata
     id="metadata1420">
    <rdf:RDF>
      <cc:Work
         rdf:about="">
        <dc:format>image/svg+xml</dc:format>
        <dc:type
           rdf:resource="http://purl.org/dc/dcmitype/StillImage" />
        <dc:title></dc:title>
      </cc:Work>
    </rdf:RDF>
  </metadata>
  <defs
     id="defs1418" />
  <sodipodi:namedview
     pagecolor="#ffffff"
     bordercolor="#666666"
     borderopacity="1"
     objecttolerance="10"
     gridtolerance="10"
     guidetolerance="10"
     inkscape:pageopacity="0"
     inkscape:pageshadow="2"
     inkscape:window-width="1366"
     inkscape:window-height="703"
     id="namedview1416"
     showgrid="false"
     fit-margin-top="0"
     fit-margin-left="0"
     fit-margin-right="0"
     fit-margin-bottom="0"
     inkscape:zoom="0.6705729"
     inkscape:cx="-88.481581"
     inkscape:cy="176.35316"
     inkscape:window-x="0"
     inkscape:window-y="40"
     inkscape:window-maximized="1"
     inkscape:current-layer="svg1414" />
  <path
     style="fill:none;stroke:#ffffff;stroke-width:2.88306761px;stroke-linecap:butt;stroke-linejoin:miter;stroke-opacity:1"
     d="m 324.08977,486.29269 35.79559,23.75786 31.03862,-31.28428 -23.992,-35.77734 14.64221,-36.81758 43.48422,-9.27109 0.28484,-43.70202 -44.84208,-9.12044 -8.50151,-18.83589"
     id="path1428"
     inkscape:connector-curvature="0"
     sodipodi:nodetypes="ccccccccc" />
  <path
     style="fill:none;stroke:#ffffff;stroke-width:2.88306761px;stroke-linecap:butt;stroke-linejoin:miter;stroke-opacity:1"
     d="m 187.91021,486.38633 -35.79559,23.75786 -31.03862,-31.28428 23.992,-35.77734 -14.64221,-36.81758 -43.484212,-9.27108 -0.284847,-43.70203 44.842079,-9.12044 8.50151,-18.83589"
     id="path1428-2"
     inkscape:connector-curvature="0"
     sodipodi:nodetypes="ccccccccc" />
  <path
     style="fill:none;stroke:#ffffff;stroke-width:14.16562366;stroke-linecap:butt;stroke-linejoin:miter;stroke-miterlimit:4;stroke-dasharray:none;stroke-opacity:1"
     d="m 314.36702,8.347428 c -16.80214,13.876349 -32.39484,28.170944 -43.18408,44.169489 -15.40128,21.21736 -20.37762,39.252706 -24.55112,57.312243 -1.84218,4.05134 -5.80656,7.30561 -6.25603,7.33155 -17.8575,4.6215 -34.52137,8.9865 -47.79585,18.28946 -11.17598,8.39478 -22.91995,17.10496 -35.49777,39.5183 -7.14115,12.35218 -18.30154,34.89743 -14.56739,58.79318 0.91933,6.36135 5.12197,12.78866 9.85424,16.07648 8.62504,6.13228 60.28094,17.10296 101.55494,16.24539 36.58193,-0.31021 68.39782,-7.39567 101.52678,-15.0629 4.81357,-2.61892 9.08939,-0.94553 13.90293,-12.69787 2.38199,-15.20048 -0.47493,-31.13963 -5.9013,-46.31492 -6.12352,-16.7053 -16.6577,-30.37886 -27.04565,-41.13437 -11.30004,-8.69438 -20.44588,-15.75008 -35.89756,-21.10498 -7.99418,-2.65141 -14.34443,-4.14677 -24.01056,-7.06126 -3.61957,-0.0594 -5.218,-5.31061 -6.07584,-9.16724 -0.29806,-6.84904 3.57682,-15.626684 7.86087,-24.590545 4.64234,-11.643268 13.4316,-22.555333 24.14571,-33.127109 8.5019,-5.897546 17.12285,-12.612729 27.72135,-15.378254 6.50568,-2.969762 11.82886,-3.579127 17.69821,-5.276245 4.38872,-1.207601 0.36015,-11.501594 -1.43027,-11.577303 C 329.0047,14.920303 325.67341,13.78423 314.36702,8.347428 Z M 157.527,261.61252 c 1.74377,41.24003 0.30636,84.55071 4.57237,125.43036 2.47385,17.63394 5.00155,34.90637 13.03011,50.25098 8.50898,17.72268 22.1078,27.4814 35.73991,37.88529 5.04845,4.13464 3.51489,-1.12811 5.23683,-1.74561 4.47855,-10.4798 19.12656,-46.4495 23.60511,-56.92931 2.07458,-5.00374 -0.88301,-6.74344 -2.31997,-7.62436 -9.30439,-8.06348 -19.56474,-13.13081 -20.60943,-33.66206 -0.252,-23.72154 14.7142,-39.30048 39.76607,-40.4418 18.23296,-0.50015 35.99543,12.82703 38.29073,39.36627 0.60216,10.25824 -7.22134,27.26719 -21.0599,34.49544 -4.89376,2.55616 -4.58756,2.75849 -1.88075,8.85194 8.85208,20.55922 12.74119,30.96311 23.75151,57.55999 0.65968,4.46901 5.70676,-0.24679 8.05798,-2.0159 9.97274,-7.78996 14.70688,-8.95495 30.36793,-30.36793 7.07537,-12.16234 11.91096,-31.28806 15.3163,-56.42818 4.39927,-37.19898 4.31918,-81.22835 4.88769,-124.05638 -29.13302,7.70405 -62.1679,11.95776 -97.12334,11.89453 -29.98004,0.57941 -70.30844,-1.88818 -99.62915,-12.46327 z"
     id="path1445"
     inkscape:connector-curvature="0"
     sodipodi:nodetypes="ccccccccccccccccccccccccccccccccccccccccc" />
  <g
     id="g2277"
     transform="matrix(2.8830676,0,0,2.8830676,4.0937481,-25.162611)"
     style="fill:#ffffff;stroke:#ffffff">
    <path
       sodipodi:nodetypes="csccccscccscccccsscccsccc"
       inkscape:connector-curvature="0"
       id="path1044-7"
       d="m 84.525113,84.517568 c -2.1683,-2.137546 -3.6759,-3.8 -3.44602,-3.8 0.15306,0 4.28298,4.124522 5.16675,5.16 1.00351,1.175781 0.237,0.569957 -1.72073,-1.36 z m 7.90586,-0.84 c 2.30191,-2.474363 3.06233,-3.204813 3.19656,-3.070584 0.14612,0.146122 -0.13333,0.440456 -2.74275,2.88883 l -2.24,2.101754 z m -2.18619,-2.343624 c -0.99359,-0.870491 -1.80099,-1.416376 -2.0949,-1.416376 -0.15779,0 -0.77355,0.412867 -1.36837,0.917482 l -1.08147,0.917481 0.76424,-0.938277 c 1.21019,-1.485788 1.25093,-1.865524 0.31896,-2.9731 l -0.45301,-0.538378 0.76953,0.587397 c 0.42324,0.323067 0.83133,0.587395 0.90686,0.587395 0.36939,0 1.0843,-0.395381 1.81746,-1.005139 l 0.81143,-0.674861 -0.83536,1.008307 c -0.45946,0.554568 -0.83537,1.132547 -0.83537,1.284399 0,0.327784 0.29226,0.773926 1.24945,1.907294 0.8122,0.961701 0.81807,1.02633 0.0306,0.336376 z"
       style="fill:#ffffff;stroke:#ffffff;stroke-width:0.16" />
    <path
       sodipodi:nodetypes="csccccscccscccccsscccsccc"
       inkscape:connector-curvature="0"
       id="path1044-1"
       d="m 93.379482,75.663199 c -2.1683,-2.137546 -3.6759,-3.8 -3.44602,-3.8 0.15306,0 4.28298,4.124522 5.16675,5.16 1.00351,1.175781 0.237,0.569957 -1.72073,-1.36 z m 7.905858,-0.84 c 2.30191,-2.474363 3.06233,-3.204813 3.19656,-3.070584 0.14612,0.146122 -0.13333,0.440456 -2.74275,2.88883 l -2.239998,2.101754 z m -2.186188,-2.343624 c -0.99359,-0.870491 -1.80099,-1.416376 -2.0949,-1.416376 -0.15779,0 -0.77355,0.412867 -1.36837,0.917482 l -1.08147,0.917481 0.76424,-0.938277 c 1.21019,-1.485788 1.25093,-1.865524 0.31896,-2.9731 l -0.45301,-0.538378 0.76953,0.587397 c 0.42324,0.323067 0.83133,0.587395 0.90686,0.587395 0.36939,0 1.0843,-0.395381 1.81746,-1.005139 l 0.81143,-0.674861 -0.83536,1.008307 c -0.45946,0.554568 -0.83537,1.132547 -0.83537,1.284399 0,0.327784 0.29226,0.773926 1.24945,1.907294 0.8122,0.961701 0.81807,1.02633 0.0306,0.336376 z"
       style="fill:#ffffff;stroke:#ffffff;stroke-width:0.16" />
    <path
       sodipodi:nodetypes="csccccscccscccccsscccsccc"
       inkscape:connector-curvature="0"
       id="path1044-6"
       d="m 75.763948,75.663199 c -2.1683,-2.137546 -3.6759,-3.8 -3.44602,-3.8 0.15306,0 4.28298,4.124522 5.16675,5.16 1.00351,1.17578 0.237,0.569957 -1.72073,-1.36 z m 7.90586,-0.84 c 2.30191,-2.474363 3.06233,-3.204813 3.19656,-3.070584 0.14612,0.146122 -0.13333,0.440456 -2.74275,2.88883 l -2.24,2.101754 z m -2.18619,-2.343624 c -0.99359,-0.870491 -1.80099,-1.416376 -2.0949,-1.416376 -0.15779,0 -0.77355,0.412867 -1.36837,0.917482 l -1.08147,0.917481 0.76424,-0.938277 c 1.21019,-1.485788 1.25093,-1.865524 0.31896,-2.9731 l -0.45301,-0.538379 0.76953,0.587398 c 0.42324,0.323067 0.83133,0.587395 0.90686,0.587395 0.36939,0 1.0843,-0.395381 1.81746,-1.00514 l 0.81143,-0.674861 -0.83536,1.008308 c -0.45946,0.554568 -0.83537,1.132547 -0.83537,1.284399 0,0.327784 0.29226,0.773926 1.24945,1.907294 0.8122,0.961701 0.81807,1.02633 0.0306,0.336376 z"
       style="fill:#ffffff;stroke:#ffffff;stroke-width:0.16" />
    <path
       sodipodi:nodetypes="csccccscccscccccsscccsccc"
       inkscape:connector-curvature="0"
       id="path1044-9"
       d="m 84.525113,66.902034 c -2.1683,-2.137546 -3.6759,-3.8 -3.44602,-3.8 0.15306,0 4.28298,4.124522 5.16675,5.16 1.00351,1.175781 0.237,0.569957 -1.72073,-1.36 z m 7.905859,-0.84 c 2.30191,-2.474363 3.06233,-3.204813 3.19656,-3.070584 0.14612,0.146122 -0.13333,0.440456 -2.74275,2.88883 l -2.239999,2.101754 z M 90.244783,63.71841 c -0.99359,-0.870491 -1.80099,-1.416376 -2.0949,-1.416376 -0.15779,0 -0.77355,0.412867 -1.36837,0.917482 l -1.08147,0.917481 0.76424,-0.938277 c 1.21019,-1.485788 1.25093,-1.865524 0.31896,-2.9731 l -0.45301,-0.538378 0.76953,0.587397 c 0.42324,0.323067 0.83133,0.587395 0.90686,0.587395 0.36939,0 1.0843,-0.395381 1.81746,-1.005139 l 0.81143,-0.674861 -0.83536,1.008307 c -0.45946,0.554568 -0.83537,1.132547 -0.83537,1.284399 0,0.327784 0.29226,0.773926 1.24945,1.907294 0.812199,0.961701 0.818069,1.02633 0.0306,0.336376 z"
       style="fill:#ffffff;stroke:#ffffff;stroke-width:0.16" />
    <path
       sodipodi:nodetypes="csccccscccscccccsscccsccc"
       inkscape:connector-curvature="0"
       id="path1044-8"
       d="m 66.909579,84.424364 c -2.1683,-2.137546 -3.6759,-3.8 -3.44602,-3.8 0.15306,0 4.28298,4.124522 5.16675,5.16 1.00351,1.175781 0.237,0.569957 -1.72073,-1.36 z m 7.905859,-0.84 c 2.30191,-2.474363 3.06233,-3.204813 3.19656,-3.070584 0.14612,0.146122 -0.13333,0.440456 -2.74275,2.88883 l -2.239999,2.101754 z M 72.629249,81.24074 c -0.99359,-0.870491 -1.80099,-1.416376 -2.0949,-1.416376 -0.15779,0 -0.77355,0.412867 -1.36837,0.917482 l -1.08147,0.917481 0.76424,-0.938277 c 1.21019,-1.485788 1.25093,-1.865524 0.31896,-2.9731 l -0.45301,-0.538378 0.76953,0.587397 c 0.42324,0.323067 0.83133,0.587395 0.90686,0.587395 0.36939,0 1.0843,-0.395381 1.81746,-1.005139 l 0.81143,-0.674861 -0.83536,1.008307 c -0.45946,0.554568 -0.83537,1.132547 -0.83537,1.284399 0,0.327784 0.29226,0.773926 1.24945,1.907294 0.812199,0.961701 0.818069,1.02633 0.0306,0.336376 z"
       style="fill:#ffffff;stroke:#ffffff;stroke-width:0.16" />
    <path
       sodipodi:nodetypes="csccccscccscccccsscccsccc"
       inkscape:connector-curvature="0"
       id="path1044-13"
       d="m 58.241618,93.185529 c -2.1683,-2.137546 -3.6759,-3.8 -3.44602,-3.8 0.15306,0 4.28298,4.124522 5.16675,5.16 1.00351,1.175781 0.237,0.569957 -1.72073,-1.36 z m 7.90586,-0.84 c 2.30191,-2.474363 3.06233,-3.204813 3.19656,-3.070584 0.14612,0.146122 -0.13333,0.440456 -2.74275,2.88883 l -2.24,2.101754 z m -2.18619,-2.343624 c -0.99359,-0.870491 -1.80099,-1.416376 -2.0949,-1.416376 -0.15779,0 -0.77355,0.412867 -1.36837,0.917482 l -1.08147,0.917481 0.76424,-0.938277 c 1.21019,-1.485788 1.25093,-1.865524 0.31896,-2.9731 l -0.45301,-0.538378 0.76953,0.587397 c 0.42324,0.323067 0.83133,0.587395 0.90686,0.587395 0.36939,0 1.0843,-0.395381 1.81746,-1.005139 l 0.81143,-0.674861 -0.83536,1.008307 c -0.45946,0.554568 -0.83537,1.132547 -0.83537,1.284399 0,0.327784 0.29226,0.773926 1.24945,1.907294 0.8122,0.961701 0.81807,1.02633 0.0306,0.336376 z"
       style="fill:#ffffff;stroke:#ffffff;stroke-width:0.16" />
    <path
       sodipodi:nodetypes="csccccscccscccccsscccsccc"
       inkscape:connector-curvature="0"
       id="path1044-3"
       d="m 75.763948,93.278733 c -2.1683,-2.137546 -3.6759,-3.8 -3.44602,-3.8 0.15306,0 4.28298,4.124522 5.16675,5.16 1.00351,1.175781 0.237,0.569957 -1.72073,-1.36 z m 7.90586,-0.84 c 2.30191,-2.474363 3.06233,-3.204813 3.19656,-3.070584 0.14612,0.146122 -0.13333,0.440456 -2.74275,2.88883 l -2.24,2.101754 z m -2.18619,-2.343624 c -0.99359,-0.870491 -1.80099,-1.416376 -2.0949,-1.416376 -0.15779,0 -0.77355,0.412867 -1.36837,0.917482 l -1.08147,0.917481 0.76424,-0.938277 c 1.21019,-1.485788 1.25093,-1.865524 0.31896,-2.9731 l -0.45301,-0.538378 0.76953,0.587397 c 0.42324,0.323067 0.83133,0.587395 0.90686,0.587395 0.36939,0 1.0843,-0.395381 1.81746,-1.005139 l 0.81143,-0.674861 -0.83536,1.008307 c -0.45946,0.554568 -0.83537,1.132547 -0.83537,1.284399 0,0.327784 0.29226,0.773926 1.24945,1.907294 0.8122,0.961701 0.81807,1.02633 0.0306,0.336376 z"
       style="fill:#ffffff;stroke:#ffffff;stroke-width:0.16" />
    <path
       sodipodi:nodetypes="csccccscccscccccsscccsccc"
       inkscape:connector-curvature="0"
       id="path1044-37"
       d="m 93.286278,93.278733 c -2.1683,-2.137546 -3.6759,-3.8 -3.44602,-3.8 0.15306,0 4.28298,4.124522 5.16675,5.16 1.00351,1.175781 0.237,0.569957 -1.72073,-1.36 z m 7.905862,-0.84 c 2.30191,-2.474363 3.06233,-3.204813 3.19656,-3.070584 0.14612,0.146122 -0.13333,0.440456 -2.74275,2.88883 l -2.240002,2.101754 z m -2.186192,-2.343624 c -0.99359,-0.870491 -1.80099,-1.416376 -2.0949,-1.416376 -0.15779,0 -0.77355,0.412867 -1.36837,0.917482 l -1.08147,0.917481 0.76424,-0.938277 c 1.21019,-1.485788 1.25093,-1.865524 0.31896,-2.9731 l -0.45301,-0.538378 0.76953,0.587397 c 0.42324,0.323067 0.83133,0.587395 0.90686,0.587395 0.36939,0 1.0843,-0.395381 1.81746,-1.005139 l 0.81143,-0.674861 -0.83536,1.008307 c -0.45946,0.554568 -0.83537,1.132547 -0.83537,1.284399 0,0.327784 0.29226,0.773926 1.24945,1.907294 0.812199,0.961701 0.818069,1.02633 0.0306,0.336376 z"
       style="fill:#ffffff;stroke:#ffffff;stroke-width:0.16" />
    <path
       sodipodi:nodetypes="csccccscccscccccsscccsccc"
       inkscape:connector-curvature="0"
       id="path1044-98"
       d="m 102.14065,84.424364 c -2.168303,-2.137546 -3.675903,-3.8 -3.446023,-3.8 0.15306,0 4.282983,4.124522 5.166753,5.16 1.00351,1.175781 0.237,0.569957 -1.72073,-1.36 z m 7.90586,-0.84 c 2.30191,-2.474363 3.06233,-3.204813 3.19656,-3.070584 0.14612,0.146122 -0.13333,0.440456 -2.74275,2.88883 l -2.24,2.101754 z m -2.18619,-2.343624 c -0.99359,-0.870491 -1.80099,-1.416376 -2.0949,-1.416376 -0.15779,0 -0.77355,0.412867 -1.36837,0.917482 l -1.08147,0.917481 0.76424,-0.938277 c 1.21019,-1.485788 1.25093,-1.865524 0.31896,-2.9731 l -0.45301,-0.538378 0.76953,0.587397 c 0.42324,0.323067 0.83133,0.587395 0.90686,0.587395 0.36939,0 1.0843,-0.395381 1.81746,-1.005139 l 0.81143,-0.674861 -0.83536,1.008307 c -0.45946,0.554568 -0.83537,1.132547 -0.83537,1.284399 0,0.327784 0.29226,0.773926 1.24945,1.907294 0.8122,0.961701 0.81807,1.02633 0.0306,0.336376 z"
       style="fill:#ffffff;stroke:#ffffff;stroke-width:0.16" />
    <path
       sodipodi:nodetypes="csccccscccscccccsscccsccc"
       inkscape:connector-curvature="0"
       id="path1044-67"
       d="m 110.95641,75.657545 c -2.1683,-2.137546 -3.6759,-3.8 -3.44602,-3.8 0.15306,0 4.28298,4.124522 5.16675,5.16 1.00351,1.175781 0.237,0.569957 -1.72073,-1.36 z m 7.90586,-0.84 c 2.30191,-2.474363 3.06233,-3.204813 3.19656,-3.070584 0.14612,0.146122 -0.13333,0.440456 -2.74275,2.88883 l -2.24,2.101754 z m -2.18619,-2.343624 c -0.99359,-0.870491 -1.80099,-1.416376 -2.0949,-1.416376 -0.15779,0 -0.77355,0.412867 -1.36837,0.917482 l -1.08147,0.917481 0.76424,-0.938277 c 1.21019,-1.485788 1.25093,-1.865524 0.31896,-2.9731 l -0.45301,-0.538378 0.76953,0.587397 c 0.42324,0.323067 0.83133,0.587395 0.90686,0.587395 0.36939,0 1.0843,-0.395381 1.81746,-1.005139 l 0.81143,-0.674861 -0.83536,1.008307 c -0.45946,0.554568 -0.83537,1.132547 -0.83537,1.284399 0,0.327784 0.29226,0.773926 1.24945,1.907294 0.8122,0.961701 0.81807,1.02633 0.0306,0.336376 z"
       style="fill:#ffffff;stroke:#ffffff;stroke-width:0.16" />
    <path
       sodipodi:nodetypes="csccccscccscccccsscccsccc"
       inkscape:connector-curvature="0"
       id="path1044-0"
       d="m 102.11335,66.863428 c -2.168302,-2.137546 -3.675902,-3.8 -3.446022,-3.8 0.15306,0 4.282982,4.124522 5.166752,5.16 1.00351,1.175781 0.237,0.569957 -1.72073,-1.36 z m 7.90586,-0.84 c 2.30191,-2.474363 3.06233,-3.204813 3.19656,-3.070584 0.14612,0.146122 -0.13333,0.440456 -2.74275,2.88883 l -2.24,2.101754 z m -2.18619,-2.343624 c -0.99359,-0.870491 -1.80099,-1.416376 -2.0949,-1.416376 -0.15779,0 -0.77355,0.412867 -1.36837,0.917482 l -1.08147,0.917481 0.76424,-0.938277 c 1.21019,-1.485788 1.25093,-1.865524 0.31896,-2.9731 l -0.45301,-0.538378 0.76953,0.587397 c 0.42324,0.323067 0.83133,0.587395 0.90686,0.587395 0.36939,0 1.0843,-0.395381 1.81746,-1.005139 l 0.81143,-0.674861 -0.83536,1.008307 c -0.45946,0.554568 -0.83537,1.132547 -0.83537,1.284399 0,0.327784 0.29226,0.773926 1.24945,1.907294 0.8122,0.961701 0.81807,1.02633 0.0306,0.336376 z"
       style="fill:#ffffff;stroke:#ffffff;stroke-width:0.16" />
    <path
       sodipodi:nodetypes="csccccccccscc"
       inkscape:connector-curvature="0"
       id="path1044-4"
       d="m 119.66298,84.424364 c -2.1683,-2.137546 -3.6759,-3.8 -3.44602,-3.8 0.15306,0 4.28298,4.124522 5.16675,5.16 1.00351,1.175781 0.237,0.569957 -1.72073,-1.36 z m 3.62477,-4.6 c -0.15779,0 -0.77355,0.412867 -1.36837,0.917482 l -1.08147,0.917481 0.76424,-0.938277 c 1.21019,-1.485788 1.25093,-1.865524 0.31896,-2.9731 l -0.45301,-0.538378 0.76953,0.587397 c 0.42324,0.323067 0.83133,0.587395 0.90686,0.587395 0.35682,0.377635 0.67992,1.042537 0.14326,1.44 z"
       style="fill:#ffffff;stroke:#ffffff;stroke-width:0.16" />
    <path
       sodipodi:nodetypes="csccccscccscccccsscccsccc"
       inkscape:connector-curvature="0"
       id="path1044-84"
       d="m 110.90181,93.278733 c -2.1683,-2.137546 -3.6759,-3.8 -3.44602,-3.8 0.15306,0 4.28298,4.124522 5.16675,5.16 1.00351,1.17578 0.237,0.569957 -1.72073,-1.36 z m 7.90586,-0.84 c 2.30191,-2.474363 3.06233,-3.204813 3.19656,-3.070584 0.14612,0.146122 -0.13333,0.440456 -2.74275,2.88883 l -2.24,2.101754 z m -2.18619,-2.343624 c -0.99359,-0.870491 -1.80099,-1.416376 -2.0949,-1.416376 -0.15779,0 -0.77355,0.412867 -1.36837,0.917482 l -1.08147,0.917481 0.76424,-0.938277 c 1.21019,-1.485788 1.25093,-1.865524 0.31896,-2.9731 l -0.45301,-0.538378 0.76953,0.587397 c 0.42324,0.323067 0.83133,0.587395 0.90686,0.587395 0.36939,0 1.0843,-0.395381 1.81746,-1.005139 l 0.81143,-0.674861 -0.83536,1.008307 c -0.45946,0.554568 -0.83537,1.132547 -0.83537,1.284399 0,0.327784 0.29226,0.773926 1.24945,1.907294 0.8122,0.961701 0.81807,1.02633 0.0306,0.336376 z"
       style="fill:#ffffff;stroke:#ffffff;stroke-width:0.16" />
    <path
       sodipodi:nodetypes="ccssccccc"
       inkscape:connector-curvature="0"
       id="path1044-81"
       d="m 104.30558,95.456687 -0.45301,-0.538378 0.76953,0.587397 c 0.42324,0.323067 0.83133,0.587395 0.90686,0.587395 0.36939,0 1.0843,-0.395381 1.81746,-1.005139 l 0.81143,-0.674861 -0.83536,1.008307 c -0.45946,0.554568 -0.83537,1.132547 -0.83537,1.284399 -2.5907,0.560048 0.21979,1.130869 -2.18154,-1.24912 z"
       style="fill:#ffffff;stroke:#ffffff;stroke-width:0.16" />
    <path
       sodipodi:nodetypes="cscccccsscccsccc"
       inkscape:connector-curvature="0"
       id="path1044-68"
       d="m 90.244783,98.949478 c -0.99359,-0.870491 -1.80099,-1.416376 -2.0949,-1.416376 -0.15779,0 -0.77355,0.412867 -1.36837,0.917482 l -1.08147,0.917481 0.76424,-0.938277 c 1.21019,-1.485788 1.25093,-1.865524 0.31896,-2.9731 l -0.45301,-0.538378 0.76953,0.587397 c 0.42324,0.323067 0.83133,0.587395 0.90686,0.587395 0.36939,0 1.0843,-0.395381 1.81746,-1.005139 l 0.81143,-0.674861 -0.83536,1.008307 c -0.45946,0.554568 -0.83537,1.132547 -0.83537,1.284399 0,0.327784 0.29226,0.773926 1.24945,1.907294 0.8122,0.961701 0.81807,1.02633 0.0306,0.336376 z"
       style="fill:#ffffff;stroke:#ffffff;stroke-width:0.16" />
    <path
       sodipodi:nodetypes="cccssccccc"
       inkscape:connector-curvature="0"
       id="path1044-52"
       d="m 70.534349,97.533102 c -4.745345,3.121728 0.482173,0.15997 -1.36664,-2.076414 l -0.45301,-0.538378 0.76953,0.587397 c 0.42324,0.323067 0.83133,0.587395 0.90686,0.587395 0.36939,0 1.0843,-0.395381 1.81746,-1.005139 l 0.81143,-0.674861 -0.83536,1.008307 c -0.45946,0.554568 -0.83537,1.132547 -0.83537,1.284399 1.719508,3.842102 2.463863,2.586279 -0.8149,0.827294 z"
       style="fill:#ffffff;stroke:#ffffff;stroke-width:0.16" />
    <path
       sodipodi:nodetypes="cccccscccscccccsscccsccc"
       inkscape:connector-curvature="0"
       id="path1044-19"
       d="m 49.387248,84.424364 c -1.41129,-1.70069 -1.39301,-1.998468 1.72073,1.36 1.00351,1.17578 0.237,0.569957 -1.72073,-1.36 z m 7.90586,-0.84 c 2.30191,-2.474363 3.06233,-3.204813 3.19656,-3.070584 0.14612,0.146122 -0.13333,0.440456 -2.74275,2.88883 l -2.24,2.101754 z m -2.18619,-2.343624 c -0.99359,-0.870491 -1.80099,-1.416376 -2.0949,-1.416376 -0.15779,0 -0.77355,0.412867 -1.36837,0.917482 l -1.08147,0.917481 0.76424,-0.938277 c 1.21019,-1.485788 1.25093,-1.865524 0.31896,-2.9731 l -0.45301,-0.538378 0.76953,0.587397 c 0.42324,0.323067 0.83133,0.587395 0.90686,0.587395 0.36939,0 1.0843,-0.395381 1.81746,-1.005139 l 0.81143,-0.674861 -0.83536,1.008307 c -0.45946,0.554568 -0.83537,1.132547 -0.83537,1.284399 0,0.327784 0.29226,0.773926 1.24945,1.907294 0.8122,0.961701 0.81807,1.02633 0.0306,0.336376 z"
       style="fill:#ffffff;stroke:#ffffff;stroke-width:0.16" />
    <path
       sodipodi:nodetypes="csccccscccscccccsscccsccc"
       inkscape:connector-curvature="0"
       id="path1044-96"
       d="m 58.148414,75.663199 c -2.1683,-2.137546 -3.6759,-3.8 -3.44602,-3.8 0.15306,0 4.28298,4.124522 5.16675,5.16 1.00351,1.175781 0.237,0.569957 -1.72073,-1.36 z m 7.90586,-0.84 c 2.30191,-2.474363 3.06233,-3.204813 3.19656,-3.070584 0.14612,0.146122 -0.13333,0.440456 -2.74275,2.88883 l -2.24,2.101754 z m -2.18619,-2.343624 c -0.99359,-0.870491 -1.80099,-1.416376 -2.0949,-1.416376 -0.15779,0 -0.77355,0.412867 -1.36837,0.917482 l -1.08147,0.917481 0.76424,-0.938277 c 1.21019,-1.485788 1.25093,-1.865524 0.31896,-2.9731 l -0.45301,-0.538378 0.76953,0.587397 c 0.42324,0.323067 0.83133,0.587395 0.90686,0.587395 0.36939,0 1.0843,-0.395381 1.81746,-1.005139 l 0.81143,-0.674861 -0.83536,1.008307 c -0.45946,0.554568 -0.83537,1.132547 -0.83537,1.284399 0,0.327784 0.29226,0.773926 1.24945,1.907294 0.8122,0.961701 0.81807,1.02633 0.0306,0.336376 z"
       style="fill:#ffffff;stroke:#ffffff;stroke-width:0.16" />
    <path
       sodipodi:nodetypes="csccccscccscccccsscccsccc"
       inkscape:connector-curvature="0"
       id="path1044-06"
       d="m 67.002783,66.80883 c -2.1683,-2.137546 -3.6759,-3.8 -3.44602,-3.8 0.15306,0 4.28298,4.124522 5.16675,5.16 1.00351,1.175781 0.237,0.569957 -1.72073,-1.36 z m 7.90586,-0.84 c 2.30191,-2.474363 3.06233,-3.204813 3.19656,-3.070584 0.14612,0.146122 -0.13333,0.440456 -2.74275,2.88883 l -2.24,2.101754 z m -2.18619,-2.343624 c -0.99359,-0.870491 -1.80099,-1.416376 -2.0949,-1.416376 -0.15779,0 -0.77355,0.412867 -1.36837,0.917482 l -1.08147,0.917481 0.76424,-0.938277 c 1.21019,-1.485788 1.25093,-1.865524 0.31896,-2.9731 l -0.45301,-0.538378 0.76953,0.587397 c 0.42324,0.323067 0.83133,0.587395 0.90686,0.587395 0.36939,0 1.0843,-0.395381 1.81746,-1.005139 l 0.81143,-0.674861 -0.83536,1.008307 c -0.45946,0.554568 -0.83537,1.132547 -0.83537,1.284399 0,0.327784 0.29226,0.773926 1.24945,1.907294 0.8122,0.961701 0.81807,1.02633 0.0306,0.336376 z"
       style="fill:#ffffff;stroke:#ffffff;stroke-width:0.16" />
    <path
       sodipodi:nodetypes="csccccscccscccccsscccsccc"
       inkscape:connector-curvature="0"
       id="path1044-49"
       d="m 75.857152,58.047665 c -2.1683,-2.137546 -3.6759,-3.8 -3.44602,-3.8 0.15306,0 4.28298,4.124522 5.16675,5.16 1.00351,1.175781 0.237,0.569957 -1.72073,-1.36 z m 7.905859,-0.84 c 2.30191,-2.474363 3.06233,-3.204813 3.19656,-3.070584 0.14612,0.146122 -0.13333,0.440456 -2.74275,2.88883 l -2.239999,2.101754 z m -2.186189,-2.343624 c -0.99359,-0.870491 -1.80099,-1.416376 -2.0949,-1.416376 -0.15779,0 -0.77355,0.412867 -1.36837,0.917482 l -1.08147,0.917481 0.76424,-0.938277 c 1.21019,-1.485788 1.25093,-1.865524 0.31896,-2.9731 l -0.45301,-0.538378 0.76953,0.587397 c 0.42324,0.323067 0.83133,0.587395 0.90686,0.587395 0.36939,0 1.0843,-0.395381 1.81746,-1.005139 l 0.81143,-0.674861 -0.83536,1.008307 c -0.45946,0.554568 -0.83537,1.132547 -0.83537,1.284399 0,0.327784 0.29226,0.773926 1.24945,1.907294 0.812199,0.961701 0.818069,1.02633 0.0306,0.336376 z"
       style="fill:#ffffff;stroke:#ffffff;stroke-width:0.16" />
    <path
       sodipodi:nodetypes="cscccccccccc"
       inkscape:connector-curvature="0"
       id="path1044-90"
       d="m 93.379481,58.047664 c -2.1683,-2.137546 -3.6759,-3.8 -3.44602,-3.8 0.15306,0 4.28298,4.124522 5.16675,5.16 1.00351,1.175781 0.237,0.569957 -1.72073,-1.36 z m 7.905859,-0.84 c 1.72727,-1.891224 1.85204,-1.383836 0.45381,-0.181754 l -2.239999,2.101754 z m -5.649459,-2.842518 -1.08147,0.917481 0.76424,-0.938277 c 3.004485,-3.331293 3.040592,-2.014309 0.31723,0.0208 z"
       style="fill:#ffffff;stroke:#ffffff;stroke-width:0.16" />
    <path
       sodipodi:nodetypes="cccc"
       inkscape:connector-curvature="0"
       id="path1044-89"
       d="m 48.471664,92.259339 c 2.30191,-2.474363 3.06233,-3.204813 3.19656,-3.070584 0.14612,0.146122 -0.13333,0.440456 -2.74275,2.88883 -1.196276,1.026509 -1.190901,1.071206 -0.45381,0.181754 z"
       style="fill:#ffffff;stroke:#ffffff;stroke-width:0.16" />
  </g>
</svg>
